<?xml version="1.0" encoding="utf-8"?>
<!-- Generator: Adobe Illustrator 25.4.1, SVG Export Plug-In . SVG Version: 6.00 Build 0)  -->
<svg version="1.1" id="Layer_1" xmlns="http://www.w3.org/2000/svg" xmlns:xlink="http://www.w3.org/1999/xlink" x="0px" y="0px"
	 viewBox="0 0 398.21 436.77" style="enable-background:new 0 0 398.21 436.77;" xml:space="preserve">
<g>
	<g>
		<g style="opacity:0.47;">
			<g>
				<g>
					<path style="fill:none;stroke:#BB2327;stroke-width:34;stroke-miterlimit:10;" d="M-285.55,741.81"/>
				</g>
			</g>
		</g>
	</g>
</g>
<path style="fill:#DF312D;" d="M205.39,34.2"/>
<path style="fill:#DF312D;" d="M205.39,34.2"/>
<path style="fill:#BB2327;" d="M203.12,53.17c37.02,0,72.53,11.25,102.69,32.53l-25.66,36.37c-22.61-15.95-49.25-24.38-77.03-24.38
	c-10.27,0-20.49,1.16-30.39,3.46l-10.06-43.36C175.86,54.72,189.47,53.17,203.12,53.17"/>
<path style="fill:#BB2327;" d="M122,390.29l20.28-39.63c18.93,9.69,39.4,14.6,60.85,14.6s41.91-4.91,60.85-14.6l20.28,39.63"/>
<g>
	<g>
		<g>
			<g>
				<path style="fill:#BB2327;" d="M320.76,204.56c-9.55-41.96-41.07-75.86-82.26-88.47l14.48-47.29
					c58.08,17.78,102.54,65.6,116.01,124.79L320.76,204.56z"/>
			</g>
		</g>
	</g>
</g>
<path style="fill:#BB2327;" d="M161.85,394.5c-48.96-11.92-89.59-44.87-111.48-90.4l44.57-21.43c15.45,32.13,44.1,55.38,78.61,63.78
	L161.85,394.5"/>
<g>
	<g>
		<g>
			<g>
				<path style="fill:#DD1F26;" d="M147.53,363.04c-52.98-22.41-87.21-74.05-87.21-131.57h16.82c0,50.75,30.2,96.31,76.94,116.08
					L147.53,363.04z"/>
			</g>
		</g>
	</g>
</g>
<g>
	<g>
		<g>
			<g>
				<path style="fill:#DF312D;" d="M203.12,374.26c-78.74,0-142.79-64.06-142.79-142.79h16.82c0,69.46,56.51,125.98,125.98,125.98
					V374.26z M345.91,231.47H329.1c0-69.46-56.51-125.98-125.98-125.98V88.68C281.86,88.68,345.91,152.73,345.91,231.47z"/>
			</g>
		</g>
	</g>
</g>
<g style="opacity:0.69;">
	<g>
		<g>
			<g>
				<path style="fill:#DF312D;" d="M330.09,338.31l-15.13-12.74c22.13-26.27,34.31-59.69,34.31-94.09c0-17.57-3.08-34.75-9.16-51.05
					l18.54-6.91c6.91,18.52,10.41,38.02,10.41,57.96C369.06,270.53,355.22,308.47,330.09,338.31z"/>
			</g>
		</g>
	</g>
</g>
<g style="opacity:0.69;">
	<g>
		<g>
			<g>
				<path style="fill:#DF312D;" d="M78.02,170.71l-24.29-11.1c8.39-18.36,19.94-34.96,34.33-49.35c28.2-28.2,65.57-45.6,105.25-49
					l2.28,26.61c-33.41,2.86-64.89,17.52-88.64,41.27C94.81,141.27,85.08,155.25,78.02,170.71z"/>
			</g>
		</g>
	</g>
</g>
<g style="opacity:0.69;">
	<g>
		<g>
			<g>
				<path style="fill:#DF312D;" d="M133.55,374.85c-17.98-8.22-34.25-19.53-48.35-33.63c-27.62-27.62-44.66-64.23-47.99-103.1
					l19.71-1.69c2.93,34.22,17.94,66.47,42.27,90.8c12.42,12.42,26.75,22.39,42.58,29.62L133.55,374.85z"/>
			</g>
		</g>
	</g>
</g>
<g style="opacity:0.93;">
	<g>
		<g>
			<linearGradient id="SVGID_1_" gradientUnits="userSpaceOnUse" x1="56.525" y1="231.4691" x2="349.7133" y2="231.4691">
				<stop  offset="0" style="stop-color:#272727"/>
				<stop  offset="0.2218" style="stop-color:#292828"/>
				<stop  offset="0.4071" style="stop-color:#2E2D2E"/>
				<stop  offset="0.5792" style="stop-color:#363536"/>
				<stop  offset="0.7434" style="stop-color:#414142"/>
				<stop  offset="0.9005" style="stop-color:#505053"/>
				<stop  offset="1" style="stop-color:#5C5B60"/>
			</linearGradient>
			<path style="fill:url(#SVGID_1_);" d="M349.71,231.47c0,80.96-65.63,146.59-146.59,146.59S56.53,312.43,56.53,231.47
				S122.16,84.87,203.12,84.87S349.71,150.51,349.71,231.47z"/>
		</g>
	</g>
</g>
<g style="opacity:0.74;">
	<g>
		<g>
			<g>
				<path style="fill:#BB2327;" d="M275.48,128.69c-21.24-14.99-46.26-22.91-72.36-22.91c-9.65,0-19.25,1.09-28.55,3.25l-9.45-40.73
					c12.39-2.88,25.18-4.33,38-4.33c34.78,0,68.14,10.57,96.47,30.56L275.48,128.69z"/>
			</g>
		</g>
	</g>
</g>
<path style="fill:#BB2327;" d="M126.91,380.67l19.05-37.23c17.79,9.1,37.02,13.71,57.16,13.71s39.38-4.61,57.16-13.71l19.05,37.23"
	/>
<g>
	<g>
		<g>
			<g>
				<path style="fill:#BB2327;" d="M313.63,206.19c-8.97-39.42-38.58-71.27-77.28-83.11l13.6-44.43
					c54.57,16.71,96.32,61.63,108.98,117.23L313.63,206.19z"/>
			</g>
		</g>
	</g>
</g>
<path style="fill:#BB2327;" d="M164.35,384.62c-45.99-11.2-84.16-42.15-104.73-84.93l41.87-20.13
	c14.51,30.19,41.43,52.02,73.85,59.92L164.35,384.62"/>
<g>
	<g>
		<g>
			
				<linearGradient id="SVGID_00000101804268783275772750000012768103546934566821_" gradientUnits="userSpaceOnUse" x1="76.8742" y1="231.4691" x2="329.3642" y2="231.4691">
				<stop  offset="0" style="stop-color:#272727"/>
				<stop  offset="0.2218" style="stop-color:#292828"/>
				<stop  offset="0.4071" style="stop-color:#2E2D2E"/>
				<stop  offset="0.5792" style="stop-color:#363536"/>
				<stop  offset="0.7434" style="stop-color:#414142"/>
				<stop  offset="0.9005" style="stop-color:#505053"/>
				<stop  offset="1" style="stop-color:#5C5B60"/>
			</linearGradient>
			<path style="fill:url(#SVGID_00000101804268783275772750000012768103546934566821_);" d="M326.8,206.03
				c1.68,8.22,2.56,16.73,2.56,25.44c0,69.72-56.52,126.24-126.24,126.24S76.87,301.19,76.87,231.47s56.52-126.24,126.24-126.24
				 M203.12,105.22c61.01,0,111.91,43.27,123.68,100.8"/>
		</g>
	</g>
</g>
<g>
	<g>
		<g>
			<g>
				<path style="fill:#DD1F26;" d="M150.9,355.07c-49.77-21.05-81.93-69.57-81.93-123.6h15.8c0,47.67,28.37,90.48,72.28,109.05
					L150.9,355.07z"/>
			</g>
		</g>
	</g>
</g>
<g>
	<g>
		<g>
			<g>
				<path style="fill:#DF312D;" d="M203.12,365.61c-73.97,0-134.14-60.18-134.14-134.14h15.8c0,65.26,53.09,118.35,118.35,118.35
					V365.61z M337.26,231.47h-15.8c0-65.26-53.09-118.35-118.35-118.35v-15.8C277.09,97.33,337.26,157.5,337.26,231.47z"/>
			</g>
		</g>
	</g>
</g>
<g style="opacity:0.69;">
	<g>
		<g>
			<g>
				<path style="fill:#DF312D;" d="M322.4,331.83l-14.22-11.97c20.79-24.68,32.23-56.07,32.23-88.39c0-16.51-2.9-32.64-8.61-47.96
					l17.41-6.49c6.49,17.4,9.78,35.72,9.78,54.45C359.01,268.16,346.01,303.81,322.4,331.83z"/>
			</g>
		</g>
	</g>
</g>
<g style="opacity:0.69;">
	<g>
		<g>
			<g>
				<path style="fill:#DF312D;" d="M85.6,174.39l-22.82-10.43c7.88-17.25,18.73-32.85,32.25-46.36
					c26.49-26.49,61.6-42.83,98.87-46.03l2.14,25c-31.39,2.69-60.96,16.46-83.27,38.77C101.37,146.73,92.23,159.87,85.6,174.39z"/>
			</g>
		</g>
	</g>
</g>
<g style="opacity:0.69;">
	<g>
		<g>
			<g>
				<path style="fill:#DF312D;" d="M137.77,366.17c-16.89-7.72-32.17-18.35-45.42-31.59c-25.95-25.95-41.96-60.34-45.09-96.85
					l18.52-1.59c2.75,32.15,16.86,62.44,39.71,85.3c11.67,11.67,25.13,21.03,40,27.83L137.77,366.17z"/>
			</g>
		</g>
	</g>
</g>
<g>
	<path style="fill:#FFFFFF;" d="M213.53,226.27c0,7.04-1.52,13.24-4.57,18.6s-7.3,9.51-12.76,12.45
		c-5.46,2.94-11.68,4.41-18.67,4.41h-25.47v-69.29h25.37c7.31,0,13.68,1.46,19.1,4.36c5.43,2.91,9.61,6.93,12.57,12.05
		C212.05,213.99,213.53,219.79,213.53,226.27z M203.62,226.57c0-7.7-2.37-13.85-7.11-18.43c-4.74-4.58-11.69-6.87-20.85-6.87h-14.03
		v51.53h15.42c8.43,0,14.96-2.31,19.6-6.92C201.29,241.28,203.62,234.84,203.62,226.57z"/>
	<path style="fill:#FFFFFF;" d="M265.08,252.71v9.03H225.3v-69.29h9.67v60.26H265.08z"/>
</g>
<g>
</g>
<g>
</g>
<g>
</g>
<g>
</g>
<g>
</g>
<g>
</g>
</svg>
