<?xml version="1.0" encoding="utf-8"?>
<!-- Generator: Adobe Illustrator 25.4.1, SVG Export Plug-In . SVG Version: 6.00 Build 0)  -->
<svg version="1.1" id="Layer_1" xmlns="http://www.w3.org/2000/svg" xmlns:xlink="http://www.w3.org/1999/xlink" x="0px" y="0px"
	 viewBox="0 0 319.73 334.53" style="enable-background:new 0 0 319.73 334.53;" xml:space="preserve">
<g style="opacity:0.51;">
	<rect x="278.16" y="59.68" style="fill:#BB2327;" width="27.58" height="141.61"/>
</g>
<g style="opacity:0.58;">
	<rect x="74.25" y="284.45" style="fill:#DF312D;" width="177.85" height="39.59"/>
</g>
<g style="opacity:0.58;">
	<rect x="74.25" y="10.16" style="fill:#DF312D;" width="177.85" height="33.94"/>
</g>
<g>
	<polygon style="fill:#BB2327;" points="302.52,98.07 281.37,98.07 281.37,40.8 192.8,40.8 192.8,19.11 302.52,19.11 	"/>
</g>
<g>
	<polygon style="fill:#DF312D;" points="282.25,122.23 266.62,122.23 266.62,54.51 154.61,54.51 154.61,38.49 282.25,38.49 	"/>
</g>
<g>
	<polygon style="fill:#BB2327;" points="123.82,312.19 14.1,312.19 14.1,233.23 35.25,233.23 35.25,290.51 123.82,290.51 	"/>
</g>
<g>
	<polygon style="fill:#DF312D;" points="162.01,292.81 34.37,292.81 34.37,209.07 50,209.07 50,276.79 162.01,276.79 	"/>
</g>
<g>
	<path style="fill:none;stroke:#BB2327;stroke-width:43;stroke-miterlimit:10;" d="M195.56,27.13"/>
</g>
<g>
	<path style="fill:none;stroke:#BB2327;stroke-width:43;stroke-miterlimit:10;" d="M294.71,95.25"/>
</g>
<g style="opacity:0.51;">
	<polygon style="fill:#BB2327;" points="32.69,102.85 16.14,102.85 16.14,18.64 130.74,18.64 130.74,35.61 32.69,35.61 	"/>
</g>
<linearGradient id="SVGID_1_" gradientUnits="userSpaceOnUse" x1="28.6577" y1="165.731" x2="290.4895" y2="165.731">
	<stop  offset="0" style="stop-color:#272727"/>
	<stop  offset="0.2218" style="stop-color:#292828"/>
	<stop  offset="0.4071" style="stop-color:#2E2D2E"/>
	<stop  offset="0.5792" style="stop-color:#363536"/>
	<stop  offset="0.7434" style="stop-color:#414142"/>
	<stop  offset="0.9005" style="stop-color:#505053"/>
	<stop  offset="1" style="stop-color:#5C5B60"/>
</linearGradient>
<rect x="28.66" y="31.5" style="opacity:0.82;fill:url(#SVGID_1_);" width="261.83" height="268.45"/>
<g style="opacity:0.51;">
	<rect x="274.46" y="63.04" style="fill:#BB2327;" width="26.72" height="137.18"/>
</g>
<linearGradient id="SVGID_00000088100513076691617800000011038616803929268646_" gradientUnits="userSpaceOnUse" x1="48.2896" y1="165.731" x2="270.8576" y2="165.731">
	<stop  offset="0" style="stop-color:#272727"/>
	<stop  offset="0.2218" style="stop-color:#292828"/>
	<stop  offset="0.4071" style="stop-color:#2E2D2E"/>
	<stop  offset="0.5792" style="stop-color:#363536"/>
	<stop  offset="0.7434" style="stop-color:#414142"/>
	<stop  offset="0.9005" style="stop-color:#505053"/>
	<stop  offset="1" style="stop-color:#5C5B60"/>
</linearGradient>
<rect x="48.29" y="51.63" style="fill:url(#SVGID_00000088100513076691617800000011038616803929268646_);" width="222.57" height="228.2"/>
<linearGradient id="SVGID_00000150075965998561371310000003245081343245919114_" gradientUnits="userSpaceOnUse" x1="28.6577" y1="165.6967" x2="278.4282" y2="165.6967">
	<stop  offset="0.028" style="stop-color:#B1AFB5"/>
	<stop  offset="1" style="stop-color:#5C5B60"/>
</linearGradient>
<polyline style="opacity:0.1;fill:url(#SVGID_00000150075965998561371310000003245081343245919114_);" points="38.29,288.88 
	278.43,42.51 278.43,284.23 28.66,284.23 "/>
<g>
	<g>
		<g>
			<path style="fill:#FFFFFF;" d="M101.39,143.83v16.52h23.84v6.94h-23.84v16.83h25.46v6.98h-33.8v-54.19h33.01v6.9H101.39z"/>
			<path style="fill:#FFFFFF;" d="M145.86,143.83v16.52h23.84v6.94h-23.84v16.83h25.46v6.98h-33.8v-54.19h33.01v6.9H145.86z"/>
			<path style="fill:#FFFFFF;" d="M223.96,191.12l-7.75-15.98h-24.76l-7.33,15.98h-8.54l25.01-54.5h5.88l26.05,54.5H223.96z
				 M203.42,148.52l-8.71,19.63h18.09L203.42,148.52z"/>
		</g>
	</g>
</g>
<g style="opacity:0.58;">
	<rect x="76.93" y="280.78" style="fill:#DF312D;" width="172.29" height="38.35"/>
</g>
<g style="opacity:0.58;">
	<rect x="76.93" y="15.07" style="fill:#DF312D;" width="172.29" height="32.87"/>
</g>
<g>
	<polygon style="fill:#BB2327;" points="298.06,100.23 277.57,100.23 277.57,44.75 191.77,44.75 191.77,23.74 298.06,23.74 	"/>
</g>
<g>
	<polygon style="fill:#DF312D;" points="278.43,123.63 263.29,123.63 263.29,58.04 154.77,58.04 154.77,42.51 278.43,42.51 	"/>
</g>
<g>
	<polygon style="fill:#BB2327;" points="124.95,307.65 18.66,307.65 18.66,231.16 39.15,231.16 39.15,286.65 124.95,286.65 	"/>
</g>
<g>
	<polygon style="fill:#DF312D;" points="161.95,288.88 38.29,288.88 38.29,207.76 53.43,207.76 53.43,273.36 161.95,273.36 	"/>
</g>
<g>
	<path style="fill:none;stroke:#BB2327;stroke-width:43;stroke-miterlimit:10;" d="M194.44,31.5"/>
</g>
<g>
	<path style="fill:none;stroke:#BB2327;stroke-width:43;stroke-miterlimit:10;" d="M290.49,97.49"/>
</g>
<g style="opacity:0.51;">
	<polygon style="fill:#BB2327;" points="36.67,104.86 20.64,104.86 20.64,23.29 131.65,23.29 131.65,39.72 36.67,39.72 	"/>
</g>
<g>
</g>
<g>
	<g style="opacity:0.47;">
		<g>
			<g>
				<path style="fill:none;stroke:#BB2327;stroke-width:34;stroke-miterlimit:10;" d="M-121.52,366.66"/>
			</g>
		</g>
	</g>
</g>
<g>
</g>
<g>
</g>
<g>
</g>
<g>
</g>
<g>
</g>
<g>
</g>
</svg>
