<?xml version="1.0" encoding="utf-8"?>
<!-- Generator: Adobe Illustrator 25.4.1, SVG Export Plug-In . SVG Version: 6.00 Build 0)  -->
<svg version="1.1" id="Layer_1" xmlns="http://www.w3.org/2000/svg" xmlns:xlink="http://www.w3.org/1999/xlink" x="0px" y="0px"
	 viewBox="0 0 319.73 334.53" style="enable-background:new 0 0 319.73 334.53;" xml:space="preserve">
<g style="opacity:0.51;">
	<rect x="255.6" y="68.51" style="fill:#BB2327;" width="22.14" height="119.97"/>
</g>
<g style="opacity:0.58;">
	<rect x="91.92" y="258.93" style="fill:#DF312D;" width="142.76" height="33.54"/>
</g>
<g style="opacity:0.58;">
	<rect x="91.92" y="26.55" style="fill:#DF312D;" width="142.76" height="28.75"/>
</g>
<g>
	<polygon style="fill:#BB2327;" points="275.16,101.03 258.18,101.03 258.18,52.51 187.09,52.51 187.09,34.14 275.16,34.14 	"/>
</g>
<g>
	<polygon style="fill:#DF312D;" points="258.89,121.5 246.34,121.5 246.34,64.13 156.43,64.13 156.43,50.55 258.89,50.55 	"/>
</g>
<g>
	<polygon style="fill:#BB2327;" points="131.72,282.43 43.65,282.43 43.65,215.54 60.62,215.54 60.62,264.06 131.72,264.06 	"/>
</g>
<g>
	<polygon style="fill:#DF312D;" points="162.37,266.02 59.91,266.02 59.91,195.07 72.46,195.07 72.46,252.44 162.37,252.44 	"/>
</g>
<g>
	<path style="fill:none;stroke:#BB2327;stroke-width:43;stroke-miterlimit:10;" d="M189.3,40.93"/>
</g>
<g>
	<path style="fill:none;stroke:#BB2327;stroke-width:43;stroke-miterlimit:10;" d="M268.88,98.64"/>
</g>
<g style="opacity:0.51;">
	<polygon style="fill:#BB2327;" points="58.57,105.08 45.29,105.08 45.29,33.74 137.27,33.74 137.27,48.11 58.57,48.11 	"/>
</g>
<linearGradient id="SVGID_1_" gradientUnits="userSpaceOnUse" x1="55.3309" y1="158.352" x2="265.4997" y2="158.352">
	<stop  offset="0" style="stop-color:#272727"/>
	<stop  offset="0.2218" style="stop-color:#292828"/>
	<stop  offset="0.4071" style="stop-color:#2E2D2E"/>
	<stop  offset="0.5792" style="stop-color:#363536"/>
	<stop  offset="0.7434" style="stop-color:#414142"/>
	<stop  offset="0.9005" style="stop-color:#505053"/>
	<stop  offset="1" style="stop-color:#5C5B60"/>
</linearGradient>
<rect x="55.33" y="44.64" style="opacity:0.82;fill:url(#SVGID_1_);" width="210.17" height="227.43"/>
<g style="opacity:0.51;">
	<rect x="252.63" y="71.36" style="fill:#BB2327;" width="21.45" height="116.22"/>
</g>
<linearGradient id="SVGID_00000070806288313906251330000013897744768104092085_" gradientUnits="userSpaceOnUse" x1="71.0891" y1="158.352" x2="249.7415" y2="158.352">
	<stop  offset="0" style="stop-color:#272727"/>
	<stop  offset="0.2218" style="stop-color:#292828"/>
	<stop  offset="0.4071" style="stop-color:#2E2D2E"/>
	<stop  offset="0.5792" style="stop-color:#363536"/>
	<stop  offset="0.7434" style="stop-color:#414142"/>
	<stop  offset="0.9005" style="stop-color:#505053"/>
	<stop  offset="1" style="stop-color:#5C5B60"/>
</linearGradient>
<rect x="71.09" y="61.69" style="fill:url(#SVGID_00000070806288313906251330000013897744768104092085_);" width="178.65" height="193.33"/>
<linearGradient id="SVGID_00000178189331719582549190000015843707936354874291_" gradientUnits="userSpaceOnUse" x1="55.3309" y1="158.3229" x2="255.8183" y2="158.3229">
	<stop  offset="0.028" style="stop-color:#B1AFB5"/>
	<stop  offset="1" style="stop-color:#5C5B60"/>
</linearGradient>
<polyline style="opacity:0.1;fill:url(#SVGID_00000178189331719582549190000015843707936354874291_);" points="63.07,262.68 
	255.82,53.96 255.82,258.75 55.33,258.75 "/>
<g>
	<g>
		<g>
			<path style="fill:#FFFFFF;" d="M138.07,139.8v14h19.13v5.88h-19.13v14.26h20.44v5.92h-27.13v-45.91h26.49v5.85H138.07z"/>
			<path style="fill:#FFFFFF;" d="M189.72,136.58v7.46c-3.32-3.18-6.97-4.76-10.94-4.76c-2.1,0-3.76,0.48-5,1.45
				c-1.24,0.96-1.86,2.26-1.86,3.88c0,1.03,0.16,1.94,0.48,2.73c0.32,0.79,1.04,1.69,2.16,2.69s2.79,2.14,5.02,3.38
				c3.3,1.88,5.8,3.55,7.51,5.01c1.71,1.46,2.88,2.95,3.53,4.49c0.65,1.53,0.97,3.4,0.97,5.59c0,2.23-0.57,4.26-1.72,6.08
				c-1.15,1.82-2.75,3.25-4.8,4.31s-4.4,1.58-7.06,1.58c-4.5,0-8.71-1.41-12.61-4.24v-8.35c1.65,2.17,3.56,3.83,5.74,5
				c2.17,1.16,4.47,1.74,6.87,1.74c1.96,0,3.6-0.57,4.9-1.71s1.96-2.58,1.96-4.34c0-1.16-0.22-2.19-0.65-3.09
				c-0.44-0.9-1.38-1.93-2.84-3.11c-1.46-1.17-3.67-2.61-6.64-4.32c-3.48-1.97-5.94-3.96-7.38-5.98c-1.44-2.02-2.16-4.44-2.16-7.26
				c0-2.15,0.6-4.1,1.79-5.85c1.19-1.75,2.83-3.12,4.9-4.11s4.44-1.48,7.09-1.48C182.82,133.36,186.4,134.43,189.72,136.58z"/>
		</g>
	</g>
</g>
<g style="opacity:0.58;">
	<rect x="94.08" y="255.82" style="fill:#DF312D;" width="138.29" height="32.49"/>
</g>
<g style="opacity:0.58;">
	<rect x="94.08" y="30.71" style="fill:#DF312D;" width="138.29" height="27.85"/>
</g>
<g>
	<polygon style="fill:#BB2327;" points="271.58,102.86 255.13,102.86 255.13,55.85 186.26,55.85 186.26,38.06 271.58,38.06 	"/>
</g>
<g>
	<polygon style="fill:#DF312D;" points="255.82,122.69 243.66,122.69 243.66,67.11 156.56,67.11 156.56,53.96 255.82,53.96 	"/>
</g>
<g>
	<polygon style="fill:#BB2327;" points="132.62,278.59 47.31,278.59 47.31,213.78 63.75,213.78 63.75,260.79 132.62,260.79 	"/>
</g>
<g>
	<polygon style="fill:#DF312D;" points="162.32,262.68 63.07,262.68 63.07,193.96 75.22,193.96 75.22,249.53 162.32,249.53 	"/>
</g>
<g>
	<path style="fill:none;stroke:#BB2327;stroke-width:43;stroke-miterlimit:10;" d="M188.4,44.64"/>
</g>
<g>
	<path style="fill:none;stroke:#BB2327;stroke-width:43;stroke-miterlimit:10;" d="M265.5,100.54"/>
</g>
<g style="opacity:0.51;">
	<polygon style="fill:#BB2327;" points="61.77,106.78 48.9,106.78 48.9,37.67 138.01,37.67 138.01,51.6 61.77,51.6 	"/>
</g>
<g>
</g>
<g>
	<g style="opacity:0.47;">
		<g>
			<g>
				<path style="fill:none;stroke:#BB2327;stroke-width:34;stroke-miterlimit:10;" d="M-65.22,328.58"/>
			</g>
		</g>
	</g>
</g>
<g>
</g>
<g>
</g>
<g>
</g>
<g>
</g>
<g>
</g>
<g>
</g>
</svg>
