<?xml version="1.0" encoding="utf-8"?>
<!-- Generator: Adobe Illustrator 25.4.1, SVG Export Plug-In . SVG Version: 6.00 Build 0)  -->
<svg version="1.1" id="Layer_1" xmlns="http://www.w3.org/2000/svg" xmlns:xlink="http://www.w3.org/1999/xlink" x="0px" y="0px"
	 viewBox="0 0 319.73 334.53" style="enable-background:new 0 0 319.73 334.53;" xml:space="preserve">
<g style="opacity:0.58;">
	<rect x="36.72" y="101.27" style="fill:#DF312D;" width="35.56" height="165.41"/>
</g>
<g style="opacity:0.58;">
	<rect x="36.72" y="129.83" style="fill:#DF312D;" width="155.59" height="160.24"/>
</g>
<g style="opacity:0.51;">
	<polygon style="fill:#BB2327;" points="188.85,63.43 188.85,41.82 262.12,41.82 262.12,191.45 247.35,191.45 247.35,63.43 	"/>
</g>
<g style="opacity:0.51;">
	<polygon style="fill:#BB2327;" points="198.86,50.96 198.86,35.57 274.49,35.57 274.49,142.15 259.25,142.15 259.25,50.96 	"/>
</g>
<g style="opacity:0.58;">
	<rect x="36.61" y="33.45" style="fill:#DF312D;" width="237.67" height="154.48"/>
</g>
<linearGradient id="SVGID_1_" gradientUnits="userSpaceOnUse" x1="54.349" y1="163.3613" x2="255.1835" y2="163.3613">
	<stop  offset="0" style="stop-color:#272727"/>
	<stop  offset="0.2218" style="stop-color:#292828"/>
	<stop  offset="0.4071" style="stop-color:#2E2D2E"/>
	<stop  offset="0.5792" style="stop-color:#363536"/>
	<stop  offset="0.7434" style="stop-color:#414142"/>
	<stop  offset="0.9005" style="stop-color:#505053"/>
	<stop  offset="1" style="stop-color:#5C5B60"/>
</linearGradient>
<rect x="54.35" y="50.53" style="fill:url(#SVGID_1_);" width="200.83" height="225.66"/>
<g>
	<polygon style="fill:#993333;" points="49.59,160.51 49.59,42.04 120.51,42.04 120.51,64.87 69.07,64.87 69.07,160.51 	"/>
</g>
<g>
	<polygon style="fill:#993333;" points="203.82,276.19 203.82,261.16 245.62,261.16 245.62,198.18 261.44,198.18 261.44,276.19 	"/>
</g>
<g>
	<polygon style="fill:#DF312D;" points="174.77,290.07 174.77,275.54 255.24,275.54 255.24,171.35 274.28,171.35 274.28,290.07 	"/>
</g>
<g>
	<polygon style="fill:#DF312D;" points="36.72,175.78 36.72,34.33 131.07,34.33 131.07,51.65 54.78,51.65 54.78,175.78 	"/>
</g>
<g>
	<path style="fill:none;stroke:#BB2327;stroke-width:43;stroke-miterlimit:10;" d="M288.68,186.55"/>
</g>
<g>
	<path style="fill:none;stroke:#BB2327;stroke-width:43;stroke-miterlimit:10;" d="M227.5,278.76"/>
</g>
<g style="opacity:0.58;">
	<rect x="37.28" y="34.33" style="fill:#DF312D;" width="34.45" height="160.24"/>
</g>
<g>
	<path style="fill:none;stroke:#BB2327;stroke-width:43;stroke-miterlimit:10;" d="M284.75,185.51"/>
</g>
<g>
	<path style="fill:none;stroke:#BB2327;stroke-width:43;stroke-miterlimit:10;" d="M225.48,274.84"/>
</g>
<g>
</g>
<g>
	<g style="opacity:0.47;">
		<g>
			<g>
				<path style="fill:none;stroke:#BB2327;stroke-width:34;stroke-miterlimit:10;" d="M-16.28-108.36"/>
			</g>
		</g>
	</g>
</g>
<g>
	<g>
		<g>
			<path style="fill:#FFFFFF;" d="M121.15,133.02v17.81h24.34v7.48h-24.34v18.14h26v7.53h-34.51v-58.4h33.7v7.44H121.15z"/>
			<path style="fill:#FFFFFF;" d="M184,145.52h9.92l-16.13,18.94l17.28,19.52h-9.92l-12.3-13.8l-11.62,13.8h-9.74l16.47-19.52
				l-16.47-18.94h9.74l11.62,13.21L184,145.52z"/>
		</g>
	</g>
</g>
<g>
</g>
<g>
</g>
<g>
</g>
<g>
</g>
<g>
</g>
<g>
</g>
</svg>
