<svg version="1.1" xmlns="http://www.w3.org/2000/svg" viewBox="-2752.2077620337345 -8912.07433918116 15935.186170260256 16161.243647154672"><desc>Created with Snap</desc><defs></defs><g><rect x="-2752.2077620337345" y="-8912.07433918116" width="15935.186170260256" height="16161.243647154672" fill="#d90429" style=""></rect><g transform="matrix(39.3955,0,0,39.3955,-2663.7086,-8710.5464)">
<g id="gSkvhqcb8n55x">
	<g>
		<g>
			<path d="M394.35947,201.70563c-1.02484,40.03262-14.36957,79.1557-38.30353,111.29541
				c-22.98865,30.87024-55.09421,54.61053-91.40369,67.40912c-38.09433,13.4277-80.22023,14.55121-119.00087,3.27557
				c-37.12295-10.79367-70.57287-32.86734-95.24805-62.61133C25.38264,290.91394,9.88069,253.392,6.43797,214.34755
				c-3.55445-40.31158,7.97381-81.86205,29.65278-115.82537c20.75089-32.50934,51.17118-58.51607,86.54323-73.89827
				C159.49695,8.59337,201.11905,4.49347,240.4381,12.7976c38.12755,8.05249,73.35225,27.80426,100.24336,55.98933
				c26.89423,28.18832,44.95993,64.29681,51.21994,102.76215c1.63016,10.01682,2.66824,20.29828,2.45099,30.45525
				c-0.02887,1.35051-0.02158,2.70317-0.01062,4.05388c0.00223,0.2735,0.01791,2.12119,0.04053,1.06296
				c0.42706-19.9673-1.16046-39.76802-6.2027-59.1438c-5.04739-19.39552-13.13757-37.97497-23.87042-54.89912
				c-21.23846-33.48996-52.69785-60.1273-89.29248-75.43089C236.89044,1.70323,193.83626-1.60377,153.70093,8.22285
				c-38.68525,9.47159-73.96521,31.07151-100.14757,61.06426C26.99277,99.71315,10.40321,138.17885,6.57031,178.38963
				c-3.79564,39.8199,2.91581,80.28514,21.77678,115.73189c18.54498,34.85291,47.74068,63.68491,82.8444,81.75653
				c36.80142,18.94559,79.42824,25.57199,120.27161,18.93204c39.36627-6.39981,76.25104-25.18701,104.71246-53.1062
				c28.71466-28.16757,48.28406-65.08585,55.27084-104.71338c1.72244-9.76938,2.67499-19.65547,2.9288-29.57066
				C394.42081,205.6396,394.32358,203.10771,394.35947,201.70563z" fill="#ffffff" style=""></path>
		</g>
		<g>
			<path d="M384.16437,200.95979c-0.96948,37.67242-13.51837,74.48354-36.03699,104.73305
				c-21.60678,29.02463-51.78247,51.36957-85.91025,63.42532c-35.70105,12.61154-75.16084,13.75424-111.55208,3.31155
				c-35.07212-10.06412-66.70206-30.8139-90.04433-58.84158c-23.57951-28.31256-38.23566-63.55717-41.5681-100.25949
				c-3.44505-37.94264,7.43247-77.10228,27.82195-109.0798c19.50157-30.58497,48.08769-55.05418,81.33714-69.56021
				c34.64224-15.11367,73.79033-19.02391,110.77145-11.27026c35.87495,7.52172,69.03416,26.02512,94.38576,52.48471
				c25.34052,26.44804,42.41953,60.36095,48.39987,96.51042c1.56839,9.48041,2.5929,19.22691,2.38849,28.84497
				c-0.02872,1.35051-0.02161,2.70317-0.01062,4.05388c0.0022,0.2735,0.01804,2.1212,0.04053,1.06296
				c0.3988-18.7643-1.03699-37.36839-5.73373-55.58963c-4.71414-18.28885-12.30157-35.81488-22.38492-51.78335
				C336.125,67.41871,306.52921,42.26576,272.0787,27.80338c-35.89688-15.06956-76.44377-18.24041-114.26489-9.02209
				c-36.45747,8.88595-69.70293,29.21078-94.38911,57.45163C38.38953,104.87299,22.7417,141.1198,19.13585,178.99318
				c-3.56545,37.44904,2.62349,75.50336,20.28055,108.89131c17.38305,32.86981,44.8184,60.08994,77.84254,77.18311
				c34.63775,17.92841,74.77824,24.23904,113.27341,18.05304c37.21521-5.98032,72.10785-23.73868,98.97885-50.15134
				c26.93942-26.47995,45.29636-61.12494,51.8902-98.33336c1.6369-9.23688,2.53745-18.58603,2.77872-27.96193
				C384.22592,204.89378,384.1283,202.36186,384.16437,200.95979z" fill="#ffffff" style=""></path>
		</g>
		<g>
			<path d="M378.12955,191.33397c-0.90213,34.82123-12.46313,68.84239-33.23041,96.83885
				c-20.05997,27.04294-48.12695,47.84525-79.88693,59.05234c-32.96756,11.63321-69.41772,12.71161-103.03377,3.12222
				c-32.53439-9.28085-61.88795-28.46027-83.57378-54.41476c-21.90107-26.21207-35.53071-58.8539-38.68074-92.87173
				c-3.24719-35.06709,6.89833-71.32854,25.72519-100.88348c18.06519-28.35925,44.55944-51.06163,75.37902-64.51524
				c32.12216-14.02223,68.38997-17.64727,102.68657-10.47926c33.12975,6.92413,63.7787,23.98623,87.24452,48.35861
				c23.54791,24.45763,39.4556,55.85356,45.08145,89.34676c1.47507,8.78174,2.46973,17.83081,2.28183,26.74438
				c-0.02847,1.35052-0.02161,2.70316-0.01065,4.05388c0.00223,0.27348,0.01825,2.1212,0.04056,1.06296
				c0.36649-17.38512-0.90256-34.61259-5.20755-51.50851c-4.30206-16.88425-11.25226-33.07607-20.49515-47.84441
				c-18.41162-29.41833-45.83148-52.87283-77.80072-66.39907c-33.30731-14.09239-70.98164-17.10499-106.12466-8.58576
				c-33.88019,8.2131-64.7917,27.08252-87.71803,53.32784c-23.16263,26.51585-37.65555,60.05003-41.01781,95.10304
				c-3.32995,34.71625,2.26603,70.01709,18.54348,101.02734c16.05161,30.57996,41.47656,55.92804,72.12071,71.86111
				c32.03235,16.65488,69.18037,22.58563,104.82953,16.94745c34.60011-5.47226,67.04689-21.9054,92.05138-46.42136
				c25.05826-24.56866,42.12735-56.76178,48.24323-91.32921c1.5127-8.54979,2.34369-17.20183,2.56851-25.87978
				C378.19144,195.26797,378.09323,192.73601,378.12955,191.33397z" fill="#ffffff" style=""></path>
		</g>
	</g>
</g>


<desc>Created with Snap</desc><defs></defs></g><g><g transform="matrix(1.024,0,0,-1.024,0,0)"><path d="M452 0L35 0L35 40Q68 41 88 45Q109 50 120 62Q132 75 136 96Q140 118 140 154L140 616Q140 651 137 672Q134 694 124 706Q114 719 96 723Q79 728 51 730L51 770L431 770Q527 770 608 740Q689 710 748 657Q807 604 840 531Q873 458 873 372Q873 290 842 221Q811 153 755 104Q700 55 622 27Q545 0 452 0ZM429 709L304 709Q287 709 287 692L287 175Q287 117 323 89Q359 61 434 61Q565 61 635 140Q706 219 706 370Q706 450 687 513Q668 576 632 619Q596 663 544 686Q493 709 429 709ZM1176 540L1176 164Q1176 124 1179 100Q1182 76 1191 63Q1200 50 1217 45Q1234 41 1263 40L1263 0L948 0L948 40Q976 41 993 46Q1011 52 1020 64Q1030 77 1033 99Q1037 122 1037 157L1037 280Q1037 338 1035 375Q1033 413 1030 427Q1025 452 1007 460Q990 468 944 468L944 502L1176 540ZM1029 752Q1029 785 1051 807Q1074 830 1106 830Q1139 830 1161 807Q1184 785 1184 752Q1184 720 1161 697Q1139 675 1106 675Q1074 675 1051 697Q1029 720 1029 752ZM1508 108Q1535 106 1555 104Q1576 102 1594 99Q1613 97 1631 94Q1650 92 1671 89Q1749 78 1793 30Q1838 -17 1838 -87Q1838 -172 1768 -216Q1698 -260 1562 -260Q1437 -260 1369 -224Q1302 -187 1302 -120Q1302 -68 1329 -42Q1356 -15 1397 -15Q1423 -15 1447 -26Q1472 -36 1489 -56Q1463 -61 1446 -80Q1430 -98 1430 -123Q1430 -163 1465 -185Q1501 -206 1570 -206Q1720 -206 1720 -111Q1720 -77 1697 -53Q1675 -28 1633 -23L1458 1Q1347 16 1347 100Q1347 141 1373 167Q1400 193 1449 203L1449 207Q1426 216 1407 232Q1389 248 1375 269Q1361 290 1353 314Q1346 339 1346 365Q1346 402 1361 434Q1377 467 1404 490Q1432 513 1469 526Q1507 540 1551 540Q1594 540 1635 527Q1676 514 1705 491Q1728 505 1745 514Q1762 524 1776 529Q1791 535 1803 537Q1815 540 1827 540Q1865 540 1888 523Q1912 506 1912 478Q1912 457 1899 443Q1886 430 1865 430Q1850 430 1841 436Q1832 443 1823 451Q1815 460 1806 466Q1797 473 1782 473Q1761 473 1742 446Q1752 429 1756 409Q1760 390 1760 364Q1760 326 1748 294Q1736 262 1710 237Q1685 213 1645 196Q1605 179 1548 173Q1500 168 1481 160Q1463 152 1463 136Q1463 112 1508 108ZM1556 230Q1588 230 1606 264Q1624 298 1624 359Q1624 421 1606 454Q1588 488 1555 488Q1521 488 1501 454Q1481 420 1481 361Q1481 301 1501 265Q1522 230 1556 230ZM2147 540L2147 164Q2147 124 2150 100Q2153 76 2162 63Q2171 50 2188 45Q2205 41 2234 40L2234 0L1919 0L1919 40Q1947 41 1964 46Q1982 52 1991 64Q2001 77 2004 99Q2008 122 2008 157L2008 280Q2008 338 2006 375Q2004 413 2001 427Q1996 452 1978 460Q1961 468 1915 468L1915 502L2147 540ZM2000 752Q2000 785 2022 807Q2045 830 2077 830Q2110 830 2132 807Q2155 785 2155 752Q2155 720 2132 697Q2110 675 2077 675Q2045 675 2022 697Q2000 720 2000 752ZM2349 475L2276 475L2276 520Q2336 537 2376 571Q2417 606 2437 651L2488 651L2488 530L2603 530L2603 475L2488 475L2488 168Q2488 106 2501 80Q2515 54 2547 54Q2586 54 2606 90L2627 61Q2599 -10 2495 -10Q2426 -10 2387 22Q2349 54 2349 112L2349 475ZM2977 190L2977 285Q2893 247 2850 214Q2808 182 2808 147Q2808 118 2824 101Q2840 84 2864 84Q2888 84 2909 92Q2930 101 2945 115Q2960 129 2968 148Q2977 168 2977 190ZM2836 277L2977 338L2977 380Q2977 438 2956 464Q2936 491 2893 491Q2864 491 2849 475Q2834 460 2821 424Q2812 399 2795 385Q2779 371 2750 371Q2722 371 2707 388Q2692 405 2692 436Q2692 484 2744 512Q2797 540 2903 540Q3015 540 3063 499Q3111 459 3111 364L3111 145Q3111 60 3145 60Q3164 60 3180 73L3195 44Q3181 19 3151 4Q3122 -10 3085 -10Q3039 -10 3015 18Q2991 46 2991 97L2986 97Q2957 45 2911 18Q2865 -9 2806 -9Q2743 -9 2705 26Q2667 62 2667 119Q2667 163 2706 201Q2745 240 2836 277ZM3454 830L3454 164Q3454 124 3457 100Q3460 76 3469 63Q3478 50 3495 45Q3512 41 3541 40L3541 0L3226 0L3226 40Q3254 41 3271 46Q3289 52 3298 64Q3308 77 3311 99Q3315 122 3315 157L3315 570Q3315 628 3313 665Q3311 703 3308 717Q3303 742 3285 750Q3268 758 3222 758L3222 792L3454 830ZM4115 680L4115 426Q4179 426 4218 430Q4257 434 4278 446Q4300 459 4309 483Q4318 507 4323 548L4360 548L4360 255L4323 255Q4317 295 4307 319Q4297 343 4275 355Q4253 368 4215 371Q4178 375 4115 375L4115 169Q4115 137 4123 115Q4132 93 4152 79Q4172 66 4205 60Q4238 55 4286 55Q4343 55 4382 63Q4422 71 4448 91Q4474 111 4490 144Q4506 178 4517 229L4557 229L4541 0L3863 0L3863 40Q3896 41 3917 46Q3938 51 3949 63Q3960 75 3964 97Q3968 119 3968 154L3968 616Q3968 651 3964 672Q3961 694 3951 706Q3941 719 3922 723Q3904 728 3874 730L3874 770L4506 770L4513 574L4470 574Q4464 616 4451 643Q4438 671 4415 687Q4392 704 4355 710Q4319 717 4266 717L4153 717Q4127 717 4121 710Q4115 704 4115 680ZM4945 336L4998 404Q5019 431 5026 442Q5033 453 5033 464Q5033 478 5021 484Q5010 490 4983 490L4983 530L5213 530L5213 490Q5194 489 5179 486Q5164 483 5149 474Q5134 466 5118 451Q5102 436 5081 412L4979 294L5137 91Q5160 61 5182 50Q5204 40 5237 40L5237 0L4919 0L4919 40Q4948 40 4959 45Q4971 50 4971 64Q4971 75 4964 87Q4957 100 4943 120L4885 200L4841 147Q4824 126 4814 113Q4804 100 4799 92Q4794 84 4792 79Q4791 75 4791 71Q4791 54 4805 47Q4820 40 4852 40L4852 0L4601 0L4601 40Q4633 40 4663 49Q4693 59 4710 79L4849 242L4682 454Q4663 478 4648 484Q4634 490 4609 490L4609 530L4914 530L4914 490Q4863 490 4863 462Q4863 452 4874 436L4945 336ZM5584 190L5584 285Q5500 247 5457 214Q5415 182 5415 147Q5415 118 5431 101Q5447 84 5471 84Q5495 84 5516 92Q5537 101 5552 115Q5567 129 5575 148Q5584 168 5584 190ZM5443 277L5584 338L5584 380Q5584 438 5563 464Q5543 491 5500 491Q5471 491 5456 475Q5441 460 5428 424Q5419 399 5402 385Q5386 371 5357 371Q5329 371 5314 388Q5299 405 5299 436Q5299 484 5351 512Q5404 540 5510 540Q5622 540 5670 499Q5718 459 5718 364L5718 145Q5718 60 5752 60Q5771 60 5787 73L5802 44Q5788 19 5758 4Q5729 -10 5692 -10Q5646 -10 5622 18Q5598 46 5598 97L5593 97Q5564 45 5518 18Q5472 -9 5413 -9Q5350 -9 5312 26Q5274 62 5274 119Q5274 163 5313 201Q5352 240 5443 277ZM6072 297L6072 165Q6072 123 6074 99Q6076 75 6085 62Q6094 50 6111 46Q6128 42 6158 40L6158 0L5842 0L5842 40Q5872 42 5890 46Q5908 50 5917 62Q5926 74 5929 96Q5932 119 5932 157L5932 281Q5932 338 5930 376Q5929 414 5925 428Q5922 441 5917 448Q5913 456 5903 460Q5894 465 5879 466Q5864 468 5840 468L5840 502L6033 540L6045 453L6051 453Q6093 500 6135 520Q6178 540 6234 540Q6300 540 6343 517Q6386 494 6408 451L6412 451Q6448 493 6498 516Q6548 540 6605 540Q6665 540 6709 525Q6754 510 6779 482Q6799 459 6808 422Q6818 385 6818 319L6818 165Q6818 124 6820 100Q6823 76 6832 63Q6841 50 6858 46Q6875 42 6905 40L6905 0L6589 0L6589 40Q6619 41 6636 45Q6654 50 6663 62Q6673 75 6675 97Q6678 119 6678 157L6678 288Q6678 340 6672 376Q6666 412 6653 434Q6640 456 6618 465Q6597 475 6566 475Q6531 475 6508 458Q6486 441 6471 414Q6445 367 6445 297L6445 165Q6445 124 6447 100Q6449 76 6458 63Q6467 50 6484 46Q6502 42 6533 40L6533 0L6216 0L6216 40Q6246 42 6263 46Q6281 50 6290 62Q6300 74 6302 96Q6305 119 6305 157L6305 288Q6305 340 6299 376Q6293 412 6279 434Q6266 456 6244 465Q6222 475 6189 475Q6156 475 6134 459Q6113 443 6099 416Q6086 392 6079 361Q6072 330 6072 297ZM7177 540L7177 164Q7177 124 7180 100Q7183 76 7192 63Q7201 50 7218 45Q7235 41 7264 40L7264 0L6949 0L6949 40Q6977 41 6994 46Q7012 52 7021 64Q7031 77 7034 99Q7038 122 7038 157L7038 280Q7038 338 7036 375Q7034 413 7031 427Q7026 452 7008 460Q6991 468 6945 468L6945 502L7177 540ZM7030 752Q7030 785 7052 807Q7075 830 7107 830Q7140 830 7162 807Q7185 785 7185 752Q7185 720 7162 697Q7140 675 7107 675Q7075 675 7052 697Q7030 720 7030 752ZM7538 301L7538 163Q7538 122 7540 98Q7543 75 7551 62Q7560 50 7577 46Q7595 42 7625 40L7625 0L7310 0L7310 40Q7339 42 7356 46Q7374 50 7383 62Q7393 74 7396 96Q7399 118 7399 156L7399 281Q7399 340 7397 376Q7395 413 7392 426Q7389 439 7384 447Q7379 456 7369 460Q7359 465 7344 466Q7329 468 7306 468L7306 502L7499 540L7512 452L7516 452Q7549 494 7594 517Q7639 540 7693 540Q7757 540 7796 522Q7836 505 7867 464Q7884 441 7897 404Q7910 368 7910 304L7910 163Q7910 122 7912 98Q7915 75 7923 62Q7932 50 7949 46Q7966 42 7995 40L7995 0L7682 0L7682 40Q7712 41 7729 45Q7747 50 7756 62Q7765 74 7768 96Q7771 119 7771 156L7771 292Q7771 343 7765 378Q7759 413 7745 434Q7732 456 7710 465Q7688 475 7655 475Q7623 475 7600 457Q7577 439 7560 407Q7551 389 7544 360Q7538 332 7538 301ZM8352 190L8352 285Q8268 247 8225 214Q8183 182 8183 147Q8183 118 8199 101Q8215 84 8239 84Q8263 84 8284 92Q8305 101 8320 115Q8335 129 8343 148Q8352 168 8352 190ZM8211 277L8352 338L8352 380Q8352 438 8331 464Q8311 491 8268 491Q8239 491 8224 475Q8209 460 8196 424Q8187 399 8170 385Q8154 371 8125 371Q8097 371 8082 388Q8067 405 8067 436Q8067 484 8119 512Q8172 540 8278 540Q8390 540 8438 499Q8486 459 8486 364L8486 145Q8486 60 8520 60Q8539 60 8555 73L8570 44Q8556 19 8526 4Q8497 -10 8460 -10Q8414 -10 8390 18Q8366 46 8366 97L8361 97Q8332 45 8286 18Q8240 -9 8181 -9Q8118 -9 8080 26Q8042 62 8042 119Q8042 163 8081 201Q8120 240 8211 277ZM8680 475L8607 475L8607 520Q8667 537 8707 571Q8748 606 8768 651L8819 651L8819 530L8934 530L8934 475L8819 475L8819 168Q8819 106 8832 80Q8846 54 8878 54Q8917 54 8937 90L8958 61Q8930 -10 8826 -10Q8757 -10 8718 22Q8680 54 8680 112L8680 475ZM9221 540L9221 164Q9221 124 9224 100Q9227 76 9236 63Q9245 50 9262 45Q9279 41 9308 40L9308 0L8993 0L8993 40Q9021 41 9038 46Q9056 52 9065 64Q9075 77 9078 99Q9082 122 9082 157L9082 280Q9082 338 9080 375Q9078 413 9075 427Q9070 452 9052 460Q9035 468 8989 468L8989 502L9221 540ZM9074 752Q9074 785 9096 807Q9119 830 9151 830Q9184 830 9206 807Q9229 785 9229 752Q9229 720 9206 697Q9184 675 9151 675Q9119 675 9096 697Q9074 720 9074 752ZM9653 540Q9713 540 9766 519Q9820 499 9860 463Q9901 427 9924 377Q9948 328 9948 269Q9948 208 9924 157Q9901 106 9860 69Q9820 32 9766 11Q9713 -10 9653 -10Q9594 -10 9541 10Q9488 31 9448 68Q9408 105 9385 156Q9362 208 9362 269Q9362 328 9385 378Q9408 428 9448 464Q9488 500 9541 520Q9594 540 9653 540ZM9653 482Q9623 482 9598 466Q9573 451 9555 423Q9538 395 9528 355Q9519 316 9519 268Q9519 218 9528 178Q9538 138 9555 110Q9573 82 9597 66Q9622 51 9653 51Q9684 51 9709 66Q9735 82 9753 110Q9771 139 9781 179Q9791 219 9791 268Q9791 316 9781 355Q9771 394 9753 422Q9735 451 9709 466Q9684 482 9653 482ZM10242 301L10242 163Q10242 122 10244 98Q10247 75 10255 62Q10264 50 10281 46Q10299 42 10329 40L10329 0L10014 0L10014 40Q10043 42 10060 46Q10078 50 10087 62Q10097 74 10100 96Q10103 118 10103 156L10103 281Q10103 340 10101 376Q10099 413 10096 426Q10093 439 10088 447Q10083 456 10073 460Q10063 465 10048 466Q10033 468 10010 468L10010 502L10203 540L10216 452L10220 452Q10253 494 10298 517Q10343 540 10397 540Q10461 540 10500 522Q10540 505 10571 464Q10588 441 10601 404Q10614 368 10614 304L10614 163Q10614 122 10616 98Q10619 75 10627 62Q10636 50 10653 46Q10670 42 10699 40L10699 0L10386 0L10386 40Q10416 41 10433 45Q10451 50 10460 62Q10469 74 10472 96Q10475 119 10475 156L10475 292Q10475 343 10469 378Q10463 413 10449 434Q10436 456 10414 465Q10392 475 10359 475Q10327 475 10304 457Q10281 439 10264 407Q10255 389 10248 360Q10242 332 10242 301Z" fill="#ffffff" style=""></path></g></g><g transform="matrix(2,0,0,2,3772.4161,-1157.12)"><g transform="matrix(1.024,0,0,-1.024,0,0)"><path d="M452 0L35 0L35 40Q68 41 88 45Q109 50 120 62Q132 75 136 96Q140 118 140 154L140 616Q140 651 137 672Q134 694 124 706Q114 719 96 723Q79 728 51 730L51 770L431 770Q527 770 608 740Q689 710 748 657Q807 604 840 531Q873 458 873 372Q873 290 842 221Q811 153 755 104Q700 55 622 27Q545 0 452 0ZM429 709L304 709Q287 709 287 692L287 175Q287 117 323 89Q359 61 434 61Q565 61 635 140Q706 219 706 370Q706 450 687 513Q668 576 632 619Q596 663 544 686Q493 709 429 709ZM1206 680L1206 426Q1270 426 1309 430Q1348 434 1369 446Q1391 459 1400 483Q1409 507 1414 548L1451 548L1451 255L1414 255Q1408 295 1398 319Q1388 343 1366 355Q1344 368 1306 371Q1269 375 1206 375L1206 169Q1206 137 1214 115Q1223 93 1243 79Q1263 66 1296 60Q1329 55 1377 55Q1434 55 1473 63Q1513 71 1539 91Q1565 111 1581 144Q1597 178 1608 229L1648 229L1632 0L954 0L954 40Q987 41 1008 46Q1029 51 1040 63Q1051 75 1055 97Q1059 119 1059 154L1059 616Q1059 651 1055 672Q1052 694 1042 706Q1032 719 1013 723Q995 728 965 730L965 770L1597 770L1604 574L1561 574Q1555 616 1542 643Q1529 671 1506 687Q1483 704 1446 710Q1410 717 1357 717L1244 717Q1218 717 1212 710Q1206 704 1206 680Z" fill="#ffffff" style=""></path></g></g></g></svg>