<svg version="1.1" xmlns="http://www.w3.org/2000/svg" viewBox="-3559.617607875781 -1036.2880126953125 9191.61774825664 2600.9600463867187"><desc>Created with Snap</desc><defs></defs><g><rect x="-3559.617607875781" y="-1036.2880126953125" width="9191.61774825664" height="2600.9600463867187" fill="#d90429" style=""></rect><g><g transform="matrix(1.024,0,0,-1.024,0,0)"><path d="M258 0L90 0L90 656L254 656Q406 656 485 572Q564 488 564 331Q564 253 544 191Q524 130 485 87Q446 45 389 22Q332 0 258 0ZM173 588L173 68L248 68Q363 68 420 137Q478 206 478 331Q478 456 420 522Q363 588 248 588L173 588ZM779 0L697 0L697 486L779 486L779 0ZM739 586Q715 586 698 601Q682 616 682 639Q682 663 698 677Q715 692 739 692Q763 692 779 677Q796 663 796 639Q796 616 779 601Q763 586 739 586ZM1107 -224Q1062 -224 1025 -216Q988 -207 961 -190Q935 -173 920 -149Q906 -125 906 -93Q906 -62 925 -34Q944 -6 977 17L977 21Q959 32 946 51Q934 71 934 100Q934 131 951 154Q968 177 987 190L987 194Q963 214 943 247Q924 281 924 325Q924 365 938 397Q953 429 978 451Q1003 474 1036 486Q1070 498 1107 498Q1127 498 1144 494Q1162 491 1176 486L1345 486L1345 423L1245 423Q1262 406 1273 380Q1285 354 1285 323Q1285 284 1271 252Q1257 221 1233 199Q1209 178 1176 166Q1144 154 1107 154Q1089 154 1070 158Q1051 163 1034 171Q1021 160 1012 146Q1003 133 1003 113Q1003 90 1021 75Q1039 60 1089 60L1183 60Q1268 60 1310 32Q1353 5 1353 -56Q1353 -90 1336 -121Q1319 -151 1287 -174Q1255 -197 1209 -211Q1164 -224 1107 -224ZM1107 209Q1128 209 1146 217Q1165 225 1179 240Q1194 255 1202 276Q1210 298 1210 325Q1210 379 1180 408Q1150 438 1107 438Q1064 438 1034 408Q1004 379 1004 325Q1004 298 1012 276Q1020 255 1034 240Q1049 225 1067 217Q1086 209 1107 209ZM1119 -167Q1154 -167 1182 -159Q1211 -150 1231 -137Q1251 -123 1262 -105Q1273 -87 1273 -68Q1273 -34 1248 -21Q1223 -8 1175 -8L1091 -8Q1077 -8 1060 -7Q1044 -5 1028 0Q1002 -19 990 -40Q978 -61 978 -82Q978 -121 1015 -144Q1053 -167 1119 -167ZM1529 0L1447 0L1447 486L1529 486L1529 0ZM1489 586Q1465 586 1448 601Q1432 616 1432 639Q1432 663 1448 677Q1465 692 1489 692Q1513 692 1529 677Q1546 663 1546 639Q1546 616 1529 601Q1513 586 1489 586ZM1846 -12Q1807 -12 1780 0Q1754 12 1737 33Q1721 54 1714 84Q1707 114 1707 150L1707 419L1635 419L1635 481L1711 486L1721 622L1790 622L1790 486L1921 486L1921 419L1790 419L1790 149Q1790 104 1806 79Q1823 55 1865 55Q1878 55 1893 59Q1908 63 1920 68L1936 6Q1916 -1 1892 -7Q1869 -12 1846 -12ZM2143 -12Q2082 -12 2041 24Q2001 60 2001 126Q2001 206 2072 248Q2143 291 2299 308Q2299 331 2294 353Q2290 375 2279 392Q2268 409 2248 419Q2229 430 2199 430Q2157 430 2120 414Q2083 398 2054 378L2022 435Q2056 457 2105 477Q2154 498 2213 498Q2302 498 2342 443Q2382 389 2382 298L2382 0L2314 0L2307 58L2304 58Q2269 29 2229 8Q2189 -12 2143 -12ZM2167 54Q2202 54 2233 70Q2264 87 2299 119L2299 254Q2238 246 2196 235Q2155 224 2129 209Q2104 194 2092 174Q2081 155 2081 132Q2081 90 2106 72Q2131 54 2167 54ZM2622 -12Q2575 -12 2555 16Q2535 44 2535 98L2535 712L2617 712L2617 92Q2617 72 2624 64Q2631 56 2640 56Q2644 56 2647 56Q2651 56 2658 58L2669 -4Q2661 -8 2650 -10Q2639 -12 2622 -12Z" fill="#ffffff" style=""></path></g></g><g transform="matrix(1,0,0,1,0,1245.184)"><g transform="matrix(1.024,0,0,-1.024,0,0)"><path d="M478 0L90 0L90 656L468 656L468 586L173 586L173 380L422 380L422 309L173 309L173 71L478 71L478 0ZM627 0L541 0L700 254L553 486L642 486L707 379Q718 359 730 338Q742 318 755 298L759 298Q770 318 781 338Q792 359 803 379L862 486L948 486L801 245L959 0L870 0L799 113Q786 135 773 157Q760 179 746 200L742 200Q729 179 717 157Q705 136 693 113L627 0ZM1167 -12Q1106 -12 1065 24Q1025 60 1025 126Q1025 206 1096 248Q1167 291 1323 308Q1323 331 1318 353Q1314 375 1303 392Q1292 409 1272 419Q1253 430 1223 430Q1181 430 1144 414Q1107 398 1078 378L1046 435Q1080 457 1129 477Q1178 498 1237 498Q1326 498 1366 443Q1406 389 1406 298L1406 0L1338 0L1331 58L1328 58Q1293 29 1253 8Q1213 -12 1167 -12ZM1191 54Q1226 54 1257 70Q1288 87 1323 119L1323 254Q1262 246 1220 235Q1179 224 1153 209Q1128 194 1116 174Q1105 155 1105 132Q1105 90 1130 72Q1155 54 1191 54ZM1641 0L1559 0L1559 486L1627 486L1634 416L1637 416Q1669 451 1706 474Q1744 498 1788 498Q1844 498 1875 473Q1907 449 1922 405Q1960 447 1998 472Q2037 498 2082 498Q2157 498 2193 450Q2230 402 2230 308L2230 0L2148 0L2148 297Q2148 366 2126 396Q2104 427 2058 427Q2003 427 1936 352L1936 0L1854 0L1854 297Q1854 366 1832 396Q1810 427 1763 427Q1708 427 1641 352L1641 0ZM2470 0L2388 0L2388 486L2470 486L2470 0ZM2430 586Q2406 586 2389 601Q2373 616 2373 639Q2373 663 2389 677Q2406 692 2430 692Q2454 692 2470 677Q2487 663 2487 639Q2487 616 2470 601Q2454 586 2430 586ZM2716 0L2634 0L2634 486L2702 486L2709 416L2712 416Q2747 451 2785 474Q2824 498 2875 498Q2952 498 2987 450Q3023 402 3023 308L3023 0L2941 0L2941 297Q2941 366 2919 396Q2897 427 2849 427Q2811 427 2782 408Q2753 389 2716 352L2716 0ZM3293 -12Q3232 -12 3191 24Q3151 60 3151 126Q3151 206 3222 248Q3293 291 3449 308Q3449 331 3444 353Q3440 375 3429 392Q3418 409 3398 419Q3379 430 3349 430Q3307 430 3270 414Q3233 398 3204 378L3172 435Q3206 457 3255 477Q3304 498 3363 498Q3452 498 3492 443Q3532 389 3532 298L3532 0L3464 0L3457 58L3454 58Q3419 29 3379 8Q3339 -12 3293 -12ZM3317 54Q3352 54 3383 70Q3414 87 3449 119L3449 254Q3388 246 3346 235Q3305 224 3279 209Q3254 194 3242 174Q3231 155 3231 132Q3231 90 3256 72Q3281 54 3317 54ZM3838 -12Q3799 -12 3772 0Q3746 12 3729 33Q3713 54 3706 84Q3699 114 3699 150L3699 419L3627 419L3627 481L3703 486L3713 622L3782 622L3782 486L3913 486L3913 419L3782 419L3782 149Q3782 104 3798 79Q3815 55 3857 55Q3870 55 3885 59Q3900 63 3912 68L3928 6Q3908 -1 3884 -7Q3861 -12 3838 -12ZM4105 0L4023 0L4023 486L4105 486L4105 0ZM4065 586Q4041 586 4024 601Q4008 616 4008 639Q4008 663 4024 677Q4041 692 4065 692Q4089 692 4105 677Q4122 663 4122 639Q4122 616 4105 601Q4089 586 4065 586ZM4458 -12Q4413 -12 4372 5Q4332 22 4301 54Q4270 87 4251 134Q4233 182 4233 242Q4233 303 4251 350Q4270 398 4301 431Q4332 464 4372 481Q4413 498 4458 498Q4503 498 4543 481Q4584 464 4615 431Q4646 398 4664 350Q4683 303 4683 242Q4683 182 4664 134Q4646 87 4615 54Q4584 22 4543 5Q4503 -12 4458 -12ZM4458 56Q4489 56 4515 69Q4541 83 4559 107Q4578 132 4588 166Q4598 200 4598 242Q4598 284 4588 318Q4578 353 4559 378Q4541 403 4515 416Q4489 430 4458 430Q4427 430 4401 416Q4375 403 4356 378Q4338 353 4328 318Q4318 284 4318 242Q4318 200 4328 166Q4338 132 4356 107Q4375 83 4401 69Q4427 56 4458 56ZM4893 0L4811 0L4811 486L4879 486L4886 416L4889 416Q4924 451 4962 474Q5001 498 5052 498Q5129 498 5164 450Q5200 402 5200 308L5200 0L5118 0L5118 297Q5118 366 5096 396Q5074 427 5026 427Q4988 427 4959 408Q4930 389 4893 352L4893 0Z" fill="#ffffff" style=""></path></g></g><g transform="matrix(2.9573,0,0,2.9573,-3524.964,1257.472)"><g transform="matrix(1.024,0,0,-1.024,0,0)"><path d="M258 0L90 0L90 656L254 656Q406 656 485 572Q564 488 564 331Q564 253 544 191Q524 130 485 87Q446 45 389 22Q332 0 258 0ZM173 588L173 68L248 68Q363 68 420 137Q478 206 478 331Q478 456 420 522Q363 588 248 588L173 588ZM1093 0L705 0L705 656L1083 656L1083 586L788 586L788 380L1037 380L1037 309L788 309L788 71L1093 71L1093 0Z" fill="#ffffff" style=""></path></g></g></g></svg>