<svg version="1.1" xmlns="http://www.w3.org/2000/svg" viewBox="-228.35199279785155 -1086.4640380859375 7450.62412109375 4352.768060302734"><desc>Created with Snap</desc><defs></defs><g><rect x="-228.35199279785155" y="-1086.4640380859375" width="7450.62412109375" height="4352.768060302734" fill="#d90429" style=""></rect><g transform="matrix(74.232,0,0,74.232,2309.248,583.68)"><g display="none"><rect x="-69.333" y="-18.667" display="inline" fill="#ffffff" width="473.333" height="236" style=""></rect></g><g display="none"><g display="inline"><g><polygon fill="#ffffff" points="32,31.952 0,31.952 0,0.048    " style=""></polygon></g><g><polygon fill="#ffffff" points="23.347,23.325 8.653,23.325 8.653,8.675    " style=""></polygon></g></g><g display="inline"><g><polygon fill="#ffffff" points="0,0.048 32,0.048 32,31.952    " style=""></polygon></g><g><polygon fill="#ffffff" points="8.653,8.675 23.347,8.675 23.347,23.325    " style=""></polygon></g></g></g><g display="none"><g display="inline"><rect x="8.675" y="8.675" fill="#ffffff" stroke="#ffffff" stroke-miterlimit="10" width="14.65" height="14.65" style=""></rect><rect x="0.5" y="0.326" fill="#ffffff" stroke="#ffffff" stroke-miterlimit="10" width="31" height="31.348" style=""></rect><line fill="#ffffff" stroke="#ffffff" stroke-miterlimit="10" x1="0.413" y1="0.413" x2="31.587" y2="31.587" style=""></line></g></g><g display="none"><rect x="0.5" y="0.326" display="inline" fill="#ffffff" stroke="#ffffff" stroke-miterlimit="10" width="31" height="31.348" style=""></rect><rect x="8.675" y="8.675" display="inline" fill="#ffffff" stroke="#ffffff" stroke-miterlimit="10" width="14.65" height="14.65" style=""></rect><line display="inline" fill="#ffffff" stroke="#ffffff" stroke-miterlimit="10" x1="0.413" y1="0.413" x2="31.587" y2="31.587" style=""></line></g><g><g><polygon points="9.382,8.675 23.325,8.675 23.325,22.618 32,31.293 32,0 0.707,0   " fill="#ffffff" style=""></polygon><polygon points="22.618,23.325 8.675,23.325 8.675,9.382 0,0.707 0,32 31.293,32   " fill="#ffffff" style=""></polygon></g></g><desc>Created with Snap</desc><defs></defs></g><g><g transform="matrix(1.024,0,0,-1.024,0,0)"><path d="M294 697Q408 697 491 654Q575 612 619 533Q664 454 664 347Q664 240 619 161Q575 83 491 41Q408 0 294 0L77 0L77 697L294 697ZM294 75Q429 75 500 146Q571 218 571 347Q571 477 499 550Q428 623 294 623L168 623L168 75L294 75ZM831 637Q805 637 787 655Q769 673 769 699Q769 725 787 743Q805 761 831 761Q856 761 873 743Q891 725 891 699Q891 673 873 655Q856 637 831 637ZM784 548L875 548L875 0L784 0L784 548ZM1256 557Q1327 557 1380 526Q1434 495 1460 448L1460 548L1552 548L1552 -12Q1552 -87 1520 -146Q1488 -204 1428 -237Q1369 -270 1290 -270Q1182 -270 1110 -219Q1038 -168 1025 -80L1115 -80Q1130 -130 1177 -161Q1224 -191 1290 -191Q1365 -191 1412 -144Q1460 -97 1460 -12L1460 103Q1433 55 1380 23Q1327 -9 1256 -9Q1183 -9 1123 27Q1064 63 1030 128Q996 193 996 276Q996 360 1030 423Q1064 487 1123 522Q1183 557 1256 557ZM1460 275Q1460 337 1435 383Q1410 429 1367 453Q1325 478 1274 478Q1223 478 1181 454Q1139 430 1114 384Q1089 338 1089 276Q1089 213 1114 166Q1139 120 1181 95Q1223 71 1274 71Q1325 71 1367 95Q1410 120 1435 166Q1460 213 1460 275ZM1753 637Q1727 637 1709 655Q1691 673 1691 699Q1691 725 1709 743Q1727 761 1753 761Q1778 761 1795 743Q1813 725 1813 699Q1813 673 1795 655Q1778 637 1753 637ZM1706 548L1797 548L1797 0L1706 0L1706 548ZM2206 473L2063 473L2063 150Q2063 110 2080 93Q2097 77 2139 77L2206 77L2206 0L2124 0Q2048 0 2010 35Q1972 70 1972 150L1972 473L1901 473L1901 548L1972 548L1972 686L2063 686L2063 548L2206 548L2206 473ZM2282 276Q2282 360 2316 423Q2350 487 2409 522Q2469 557 2542 557Q2614 557 2667 526Q2720 495 2746 448L2746 548L2838 548L2838 0L2746 0L2746 102Q2719 54 2665 22Q2612 -9 2541 -9Q2468 -9 2409 27Q2350 63 2316 128Q2282 193 2282 276ZM2746 275Q2746 337 2721 383Q2696 429 2653 453Q2611 478 2560 478Q2509 478 2467 454Q2425 430 2400 384Q2375 338 2375 276Q2375 213 2400 166Q2425 120 2467 95Q2509 71 2560 71Q2611 71 2653 95Q2696 120 2721 166Q2746 213 2746 275ZM2992 740L3083 740L3083 0L2992 0L2992 740ZM3596 697L3596 74L3840 74L3840 0L3505 0L3505 697L3596 697ZM3984 637Q3958 637 3940 655Q3922 673 3922 699Q3922 725 3940 743Q3958 761 3984 761Q4009 761 4026 743Q4044 725 4044 699Q4044 673 4026 655Q4009 637 3984 637ZM3937 548L4028 548L4028 0L3937 0L3937 548ZM4274 446Q4302 495 4356 526Q4410 557 4479 557Q4553 557 4612 522Q4671 487 4705 423Q4739 360 4739 276Q4739 193 4705 128Q4671 63 4611 27Q4552 -9 4479 -9Q4408 -9 4354 22Q4301 53 4274 101L4274 0L4183 0L4183 740L4274 740L4274 446ZM4646 276Q4646 338 4621 384Q4596 430 4553 454Q4511 478 4460 478Q4410 478 4367 453Q4325 429 4299 382Q4274 336 4274 275Q4274 213 4299 166Q4325 120 4367 95Q4410 71 4460 71Q4511 71 4553 95Q4596 120 4621 166Q4646 213 4646 276ZM4950 459Q4974 506 5018 532Q5063 558 5127 558L5127 464L5103 464Q4950 464 4950 298L4950 0L4859 0L4859 548L4950 548L4950 459ZM5198 276Q5198 360 5232 423Q5266 487 5325 522Q5385 557 5458 557Q5530 557 5583 526Q5636 495 5662 448L5662 548L5754 548L5754 0L5662 0L5662 102Q5635 54 5581 22Q5528 -9 5457 -9Q5384 -9 5325 27Q5266 63 5232 128Q5198 193 5198 276ZM5662 275Q5662 337 5637 383Q5612 429 5569 453Q5527 478 5476 478Q5425 478 5383 454Q5341 430 5316 384Q5291 338 5291 276Q5291 213 5316 166Q5341 120 5383 95Q5425 71 5476 71Q5527 71 5569 95Q5612 120 5637 166Q5662 213 5662 275ZM5999 459Q6023 506 6067 532Q6112 558 6176 558L6176 464L6152 464Q5999 464 5999 298L5999 0L5908 0L5908 548L5999 548L5999 459ZM6659 548L6753 548L6423 -258L6329 -258L6437 6L6216 548L6317 548L6489 104L6659 548Z" fill="#ffffff" style=""></path></g></g></g></svg>