<svg version="1.1" xmlns="http://www.w3.org/2000/svg" viewBox="-2248.121519795308 -1665.1519500732422 6934.969156208882 2505.983953857422"><desc>Created with Snap</desc><defs></defs><g><rect x="-2248.121519795308" y="-1665.1519500732422" width="6934.969156208882" height="2505.983953857422" fill="#d90429" style=""></rect><g transform="matrix(20.9943,0,0,20.9943,-2038.4431,-1357.952)"><g><path d="M51.1,39.7C51.1,39.7,51.1,39.7,51.1,39.7C51.1,39.7,51.1,39.7,51.1,39.7z" fill="#ffffff" style=""></path><path d="M51.2,39.7C51.1,39.7,51.1,39.7,51.2,39.7C51.1,39.7,51.1,39.7,51.2,39.7z" fill="#ffffff" style=""></path><path d="M85.7,51.4c-0.4-0.6-0.9-1.2-1.3-1.8c-3-4.1-3.5-8.5-1.9-13.4c2.4-7.3,0.5-19.8-3.7-26.2c-0.3-0.5-0.7-0.9-1-1.3   c1,2.2,2.1,4.3,2.8,6.6c0.8,2.3,1,4.8-0.6,7.1c0-12.1-7.1-18.2-17.5-21.6C69.3,3.3,74.7,7.4,77,14.9c1.2,4.2,0.6,10-1.5,13.4   c0-1.1,0-1.8,0-2.5c0.8-9.3-3.5-15.8-11.4-20.4C58.1,2,53.8,0.6,44.1,1.8c-7.5,0.9-14,3.9-19.2,9.4c-8.6,8.9-9.3,23.5-1.5,33.2   c0.3,0.4,0.7,0.8,1,1.2c0,0,0,0,0,0c2.3,2.2,5.9,4.7,5.9,4.7l0,0c0.1,0.1,0.2,0.2,0.3,0.2c14.6,7.7,28-2.8,30.6-7.8c0,0,0,0,0-0.1   c2.9-5.3,3.8-10.7,2.1-16.4c-2.1-7.1-6.9-11.5-13.2-13.3c1.8,1.3,4.4,2.8,6.4,4.8c6.6,6.8,5.7,17.4,4.3,21.1   c-0.2,0.5-0.4,0.9-0.5,1.3c0,0,0,0,0,0c-5.2,10.7-21.1,13.1-26.7,9.3c0,0-0.1,0-0.1,0c0,0-0.1,0-0.1,0l0,0c0,0-0.1,0-0.1-0.1   c-4.5-2.2-8.7-7.2-8.7-7.2l-0.1,0c-0.2-0.3-0.4-0.6-0.6-0.9c-6-8.8-4.2-21.9,3.9-29.2c10.8-9.7,26.7-9.7,37.3,0   c5.3,4.9,7.6,11.2,7.1,18.3c-0.2,3.7-0.7,10.7-6.8,20.5c-0.8,1.2-1.7,2.7-2.7,4.1c-2.5,3.3-5,6.4-7.6,9.6c-5.1,6.2-4.9,13.4,0.8,19   c2.5,2.4,5.4,4.4,8.1,6.6c0.2-0.2,0.3-0.3,0.5-0.5c-0.7-0.9-1.5-1.9-2.2-2.8c-2.2-3-3.6-6.1-2.9-9.9c0.6-3,1.3-3.5,4.1-2.5   c2.4,0.8,4.8,1.6,7.2,2.2c1.2,0.3,2.6,0.2,3.9,0c3-0.6,4.4-3,4-6c-0.1-0.9,0.1-2.1,0.6-2.9c0.7-1.1,1-2,0.6-3.4   c-0.2-0.5,0.3-1.6,0.8-1.9c1.1-0.6,1.5-1.3,1.3-2.5c-0.2-1.3,0.4-2.2,1.6-2.7c0.3-0.1,0.6-0.3,0.9-0.5   C87.1,55.1,87.4,53.8,85.7,51.4z" fill="#ffffff" style=""></path><path d="M53.1,18.8c4.1,4.3,4.7,8,4,12.7c-0.9,5.9-4.5,8.3-4.5,8.3C45.1,46,33.4,43.2,31,35c-1.4-4.7-0.5-8.8,3.1-12.1   c3.4-3.2,7.4-4,11.8-2.2c4.6,1.9,7,7,5.8,11.6c-1.2,4.5-5.3,7.3-10.1,6.8c-3.9-0.4-7-4-7.1-8.1c0-3.8,2.9-7,6.8-7.4   c3.5-0.4,6.7,2.2,7.3,5.9c0.5,3.2-1.8,6.1-5,6.7c-2.8,0.5-5.6-1.4-6.2-4.2c-0.6-2.7,1-5.1,3.7-5.7c1.8-0.4,3.1,0.2,4.2,1.6   c0.8,1.1,0.3,2.3,0.2,2.4c-0.9,1.4-2.9,2.3-4.6,1.9C40.1,32,39.2,31,40.2,30c-0.8,0.3-1.4,1.5,0.2,2.2c1.9,0.9,4.2,0.2,5.5-1.2   c1.3-1.4,1.2-3.5-1-4.9c-2-1.2-3.7-1.2-5.7-0.1c-2.1,1.2-2.9,3.1-2.7,5.4c0.3,3.6,3.4,6,7,5.6c3.9-0.5,6.6-3.9,6.1-7.8   c-0.5-3.8-3.4-6.6-7.1-6.8c-4.2-0.2-7.9,2.4-8.9,6.4c-0.9,4,0.8,8.1,4.3,10.3c3.5,2.2,8.5,1.7,11.8-1.1c3.8-3.2,4.9-8.8,2.6-13.3   c-2.4-4.8-7.9-7.4-13.2-6.2c-5.4,1.2-9.4,5.4-10.2,10.9c-0.8,5.1,1.9,11.5,6.4,13.8c10.6,5.6,18.9-2.3,19.4-2.7c0,0,0,0,0,0   C59.8,35.3,60.2,23.4,53.1,18.8z" fill="#ffffff" style=""></path></g><g><path d="M40.2,39C40.2,39,40.2,39,40.2,39C40.3,39,40.2,39,40.2,39z" fill="#ffffff" style=""></path><path d="M40.2,39C40.2,39,40.3,39,40.2,39C40.3,39,40.2,39,40.2,39z" fill="#ffffff" style=""></path><path d="M5.7,50.7c0.4-0.6,0.9-1.2,1.3-1.8c3-4.1,3.5-8.5,1.9-13.4c-2.4-7.3-0.5-19.8,3.7-26.2c0.3-0.5,0.7-0.9,1-1.3   c-1,2.2-2.1,4.3-2.8,6.6c-0.8,2.3-1,4.8,0.6,7.1C11.3,9.5,18.5,3.4,28.9,0c-6.8,2.6-12.3,6.8-14.5,14.2c-1.2,4.2-0.6,10,1.5,13.4   c0-1.1,0-1.8,0-2.5c-0.8-9.3,3.5-15.8,11.4-20.4c6.3-3.6,16.2-5.3,26.1-3.3c7.4,1.5,13.1,10.2,6.5,6.4c-6.7-3.9-23-6.4-33.6,3.4   c-5.3,4.9-7.6,11.2-7.1,18.3c0.2,3.7,0.7,10.7,6.8,20.5c0.8,1.2,1.7,2.7,2.7,4.1c2.5,3.3,5,6.4,7.6,9.6c5.1,6.2,4.9,13.4-0.8,19   c-2.5,2.4-5.4,4.4-8.1,6.6c-0.2-0.2-0.3-0.3-0.5-0.5c0.7-0.9,1.5-1.9,2.2-2.8c2.2-3,3.6-6.1,2.9-9.9c-0.6-3-1.3-3.5-4.1-2.5   c-2.4,0.8-4.8,1.6-7.2,2.2c-1.2,0.3-2.6,0.2-3.9,0c-3-0.6-4.4-3-4-6c0.1-0.9-0.1-2.1-0.6-2.9c-0.7-1.1-1-2-0.6-3.4   c0.2-0.5-0.3-1.6-0.8-1.9c-1.1-0.6-1.5-1.3-1.3-2.5c0.2-1.3-0.4-2.2-1.6-2.7c-0.3-0.1-0.6-0.3-0.9-0.5C4.3,54.4,4,53.1,5.7,50.7z" fill="#ffffff" style=""></path></g><desc>Created with Snap</desc><defs></defs></g><g><g transform="matrix(0.512,0,0,-0.512,0,0)"><path d="M1110 0L176 0L176 1486L1040 1486L1040 1306L412 1306L412 854L878 854L878 676L412 676L412 184L1110 184L1110 0ZM2192 560L1362 560L1362 746L2192 746L2192 560ZM2923 -16Q2826 -16 2739 -2Q2653 13 2591 33Q2529 53 2502 70L2551 261Q2589 239 2646 218Q2703 197 2771 183Q2839 170 2909 170Q3046 170 3118 216Q3190 262 3190 366Q3190 436 3154 483Q3118 531 3046 573Q2975 615 2868 666Q2777 711 2691 774Q2606 837 2551 922Q2496 1007 2496 1117Q2496 1225 2538 1298Q2581 1372 2653 1417Q2725 1462 2813 1482Q2902 1502 2995 1502Q3131 1502 3220 1475Q3309 1449 3348 1423L3302 1238Q3251 1270 3182 1295Q3114 1321 2995 1321Q2922 1321 2860 1302Q2798 1283 2760 1244Q2722 1205 2722 1144Q2722 1075 2750 1028Q2779 982 2843 941Q2907 901 3011 847Q3086 808 3159 764Q3232 721 3291 668Q3351 615 3386 546Q3422 478 3422 390Q3422 254 3358 163Q3295 73 3182 28Q3070 -16 2923 -16ZM3582 544Q3582 709 3642 841Q3702 973 3822 1050Q3942 1128 4122 1128Q4227 1128 4300 1109Q4373 1090 4400 1072L4364 890Q4322 919 4263 933Q4204 948 4120 948Q4045 948 3975 911Q3905 875 3858 795Q3811 715 3806 584Q3802 446 3842 351Q3883 257 3954 208Q4026 160 4114 160Q4197 160 4267 181Q4338 202 4374 224L4418 90Q4367 42 4274 13Q4181 -16 4076 -16Q3917 -16 3807 58Q3697 132 3639 258Q3582 385 3582 544ZM4879 0L4649 0L4649 1626L4879 1626L4879 1168L4867 967L4856 993Q4896 1025 4958 1056Q5020 1087 5092 1107Q5164 1128 5235 1130Q5417 1135 5499 1030Q5582 925 5582 681L5582 0L5352 0L5352 683Q5352 820 5309 881Q5267 942 5145 936Q5092 935 5018 911Q4944 887 4879 838L4879 0ZM6335 -16Q6199 -16 6104 32Q6009 80 5950 163Q5891 246 5864 353Q5838 461 5839 580Q5842 759 5910 881Q5978 1003 6094 1065Q6210 1128 6355 1128Q6537 1128 6646 1045Q6756 963 6804 827Q6853 692 6851 534Q6848 355 6780 232Q6713 110 6597 47Q6482 -16 6335 -16ZM6341 147Q6478 145 6547 250Q6617 356 6617 543Q6617 659 6589 753Q6561 848 6501 905Q6442 962 6349 963Q6213 966 6144 865Q6075 764 6075 577Q6075 461 6103 364Q6131 267 6190 208Q6249 149 6341 147ZM7533 -16Q7397 -16 7302 32Q7207 80 7148 163Q7089 246 7062 353Q7036 461 7037 580Q7040 759 7108 881Q7176 1003 7292 1065Q7408 1128 7553 1128Q7735 1128 7844 1045Q7954 963 8002 827Q8051 692 8049 534Q8046 355 7978 232Q7911 110 7795 47Q7680 -16 7533 -16ZM7539 147Q7676 145 7745 250Q7815 356 7815 543Q7815 659 7787 753Q7759 848 7699 905Q7640 962 7547 963Q7411 966 7342 865Q7273 764 7273 577Q7273 461 7301 364Q7329 267 7388 208Q7447 149 7539 147ZM8554 0L8322 0L8322 1626L8554 1626L8554 0Z" fill="#ffffff" style=""></path></g></g></g></svg>