<svg version="1.1" xmlns="http://www.w3.org/2000/svg" viewBox="-3069.4240236366477 -1036.2880126953125 6385.136322220632 2823.1679931640624"><desc>Created with Snap</desc><defs></defs><g><rect x="-3069.4240236366477" y="-1036.2880126953125" width="6385.136322220632" height="2823.1679931640624" fill="#cf3a3c" style=""></rect><g transform="matrix(25.4718,0,0,25.4718,-2762.224,-881.9191)"><title>artifact</title><desc>Created with Sketch.</desc><g stroke="none" stroke-width="1" fill="none" fill-rule="evenodd"><g transform="translate(0.000000, 6.000000)" fill="#000000" fill-rule="nonzero"><polygon points="32.7402222 56.7022222 0 0 30.3677778 0 43.2977778 46.2633333" fill="#ffffff" style=""></polygon><polygon points="37.7224444 12.4555556 34.5195556 0 100 0 85.2906667 25.3855556" fill="#ffffff" style=""></polygon><polygon points="46.5005556 42.586 39.5017778 17.2004444 65.0058889 23.8434444" fill="#ffffff" style=""></polygon><polygon points="69.7508889 24.911 35.1126667 60.1423333 50.2965556 86.7141111 83.5112222 28.5883333" fill="#ffffff" style=""></polygon></g></g><defs></defs></g><g><g transform="matrix(1.024,0,0,-1.024,0,0)"><path d="M258 0L90 0L90 656L254 656Q406 656 485 572Q564 488 564 331Q564 253 544 191Q524 130 485 87Q446 45 389 22Q332 0 258 0ZM173 588L173 68L248 68Q363 68 420 137Q478 206 478 331Q478 456 420 522Q363 588 248 588L173 588ZM779 0L697 0L697 486L779 486L779 0ZM739 586Q715 586 698 601Q682 616 682 639Q682 663 698 677Q715 692 739 692Q763 692 779 677Q796 663 796 639Q796 616 779 601Q763 586 739 586ZM1107 -224Q1062 -224 1025 -216Q988 -207 961 -190Q935 -173 920 -149Q906 -125 906 -93Q906 -62 925 -34Q944 -6 977 17L977 21Q959 32 946 51Q934 71 934 100Q934 131 951 154Q968 177 987 190L987 194Q963 214 943 247Q924 281 924 325Q924 365 938 397Q953 429 978 451Q1003 474 1036 486Q1070 498 1107 498Q1127 498 1144 494Q1162 491 1176 486L1345 486L1345 423L1245 423Q1262 406 1273 380Q1285 354 1285 323Q1285 284 1271 252Q1257 221 1233 199Q1209 178 1176 166Q1144 154 1107 154Q1089 154 1070 158Q1051 163 1034 171Q1021 160 1012 146Q1003 133 1003 113Q1003 90 1021 75Q1039 60 1089 60L1183 60Q1268 60 1310 32Q1353 5 1353 -56Q1353 -90 1336 -121Q1319 -151 1287 -174Q1255 -197 1209 -211Q1164 -224 1107 -224ZM1107 209Q1128 209 1146 217Q1165 225 1179 240Q1194 255 1202 276Q1210 298 1210 325Q1210 379 1180 408Q1150 438 1107 438Q1064 438 1034 408Q1004 379 1004 325Q1004 298 1012 276Q1020 255 1034 240Q1049 225 1067 217Q1086 209 1107 209ZM1119 -167Q1154 -167 1182 -159Q1211 -150 1231 -137Q1251 -123 1262 -105Q1273 -87 1273 -68Q1273 -34 1248 -21Q1223 -8 1175 -8L1091 -8Q1077 -8 1060 -7Q1044 -5 1028 0Q1002 -19 990 -40Q978 -61 978 -82Q978 -121 1015 -144Q1053 -167 1119 -167ZM1529 0L1447 0L1447 486L1529 486L1529 0ZM1489 586Q1465 586 1448 601Q1432 616 1432 639Q1432 663 1448 677Q1465 692 1489 692Q1513 692 1529 677Q1546 663 1546 639Q1546 616 1529 601Q1513 586 1489 586ZM1846 -12Q1807 -12 1780 0Q1754 12 1737 33Q1721 54 1714 84Q1707 114 1707 150L1707 419L1635 419L1635 481L1711 486L1721 622L1790 622L1790 486L1921 486L1921 419L1790 419L1790 149Q1790 104 1806 79Q1823 55 1865 55Q1878 55 1893 59Q1908 63 1920 68L1936 6Q1916 -1 1892 -7Q1869 -12 1846 -12ZM2143 -12Q2082 -12 2041 24Q2001 60 2001 126Q2001 206 2072 248Q2143 291 2299 308Q2299 331 2294 353Q2290 375 2279 392Q2268 409 2248 419Q2229 430 2199 430Q2157 430 2120 414Q2083 398 2054 378L2022 435Q2056 457 2105 477Q2154 498 2213 498Q2302 498 2342 443Q2382 389 2382 298L2382 0L2314 0L2307 58L2304 58Q2269 29 2229 8Q2189 -12 2143 -12ZM2167 54Q2202 54 2233 70Q2264 87 2299 119L2299 254Q2238 246 2196 235Q2155 224 2129 209Q2104 194 2092 174Q2081 155 2081 132Q2081 90 2106 72Q2131 54 2167 54ZM2622 -12Q2575 -12 2555 16Q2535 44 2535 98L2535 712L2617 712L2617 92Q2617 72 2624 64Q2631 56 2640 56Q2644 56 2647 56Q2651 56 2658 58L2669 -4Q2661 -8 2650 -10Q2639 -12 2622 -12Z" fill="#ffffff" style=""></path></g></g><g transform="matrix(1,0,0,1,0,1265.664)"><g transform="matrix(1.024,0,0,-1.024,0,0)"><path d="M460 0L90 0L90 656L173 656L173 71L460 71L460 0ZM650 0L568 0L568 486L650 486L650 0ZM610 586Q586 586 569 601Q553 616 553 639Q553 663 569 677Q586 692 610 692Q634 692 650 677Q667 663 667 639Q667 616 650 601Q634 586 610 586ZM1029 -12Q995 -12 958 4Q922 21 890 50L887 50L880 0L814 0L814 712L896 712L896 518L894 430Q927 459 966 478Q1005 498 1046 498Q1093 498 1129 480Q1165 463 1189 430Q1214 398 1226 352Q1239 307 1239 251Q1239 189 1222 140Q1205 91 1176 57Q1147 23 1109 5Q1071 -12 1029 -12ZM1015 57Q1045 57 1070 70Q1096 84 1114 108Q1133 133 1143 169Q1154 205 1154 250Q1154 290 1147 323Q1140 356 1124 379Q1109 403 1084 416Q1060 429 1026 429Q967 429 896 363L896 108Q928 80 959 68Q991 57 1015 57ZM1449 0L1367 0L1367 486L1435 486L1442 398L1445 398Q1470 444 1505 471Q1541 498 1583 498Q1612 498 1635 488L1619 416Q1607 420 1597 422Q1587 424 1572 424Q1541 424 1507 399Q1474 374 1449 312L1449 0ZM1826 -12Q1765 -12 1724 24Q1684 60 1684 126Q1684 206 1755 248Q1826 291 1982 308Q1982 331 1977 353Q1973 375 1962 392Q1951 409 1931 419Q1912 430 1882 430Q1840 430 1803 414Q1766 398 1737 378L1705 435Q1739 457 1788 477Q1837 498 1896 498Q1985 498 2025 443Q2065 389 2065 298L2065 0L1997 0L1990 58L1987 58Q1952 29 1912 8Q1872 -12 1826 -12ZM1850 54Q1885 54 1916 70Q1947 87 1982 119L1982 254Q1921 246 1879 235Q1838 224 1812 209Q1787 194 1775 174Q1764 155 1764 132Q1764 90 1789 72Q1814 54 1850 54ZM2300 0L2218 0L2218 486L2286 486L2293 398L2296 398Q2321 444 2356 471Q2392 498 2434 498Q2463 498 2486 488L2470 416Q2458 420 2448 422Q2438 424 2423 424Q2392 424 2358 399Q2325 374 2300 312L2300 0ZM2573 -209Q2556 -209 2542 -207Q2528 -204 2516 -199L2532 -134Q2540 -136 2550 -139Q2560 -141 2569 -141Q2611 -141 2637 -112Q2664 -82 2679 -37L2690 -1L2495 486L2580 486L2679 217Q2690 185 2702 149Q2715 114 2726 80L2730 80Q2741 113 2751 149Q2761 185 2771 217L2858 486L2938 486L2755 -40Q2742 -76 2726 -107Q2710 -138 2688 -161Q2666 -183 2638 -196Q2610 -209 2573 -209Z" fill="#ffffff" style=""></path></g></g></g></svg>