<svg version="1.1" xmlns="http://www.w3.org/2000/svg" viewBox="0 0 250 250"><desc>Created with Snap</desc><defs></defs><g transform="matrix(0.0951,0,0,0.0951,18.9836,159.0732)"><rect x="-199.67999572753905" y="-1024.000048828125" width="2629.632177734375" height="1331.200048828125" fill="#d90429" style=""></rect><g><g transform="matrix(1.024,0,0,-1.024,0,0)"><path d="M205 87L613 87L613 0L105 0L105 700L599 700L599 613L205 613L205 398L556 398L556 313L205 313L205 87ZM875 87L1283 87L1283 0L775 0L775 700L1269 700L1269 613L875 613L875 398L1226 398L1226 313L875 313L875 87ZM1968 0L1891 175L1519 175L1442 0L1339 0L1656 700L1755 700L2073 0L1968 0ZM1554 255L1856 255L1705 598L1554 255Z" fill="#ffffff" style=""></path></g></g></g></svg>