<svg version="1.1" xmlns="http://www.w3.org/2000/svg" viewBox="-231.4239990234375 -1054.72001953125 4974.5923828125 3384.320031738281"><desc>Created with Snap</desc><defs></defs><g><rect x="-231.4239990234375" y="-1054.72001953125" width="4974.5923828125" height="3384.320031738281" fill="#d90429" style=""></rect><g transform="matrix(18.2924,0,0,18.2924,1331.7957,247.1423)"><path d="M83.516,20.963c7.563,8.08,12.194,18.943,12.194,30.883c0,24.959-20.234,45.203-45.193,45.203S5.324,76.834,5.324,51.876  c0-7.598,1.875-14.716,5.186-21l0.003,0.057c-0.164,1.22-0.249,2.492-0.249,3.757c0,6.928,2.537,14.309,6.731,18.309h-0.002  c-1.646-4-2.552-8.408-2.552-13.015C14.442,26.331,22.404,14,33.938,9h-0.001c-6.814,5-11.14,14.207-11.14,23.839  c0,17.386,14.095,31.247,31.482,31.247c17.388,0,31.483-14.073,31.483-31.459c0-4.13-0.795-8.062-2.241-11.675 M81.446,28.881  C80.176,40.423,70.393,49.4,58.514,49.4c-12.742,0-23.071-10.329-23.071-23.07c0-10.96,7.643-20.136,17.891-22.487l-0.05,0.01  c-14.73,0.465-26.529,12.554-26.529,27.398c0,15.138,12.271,27.409,27.409,27.409c15.14,0,27.412-12.271,27.412-27.409  c0-0.844-0.039-1.678-0.113-2.502 M42.731,34.483c3.032,6.443,9.582,10.91,17.175,10.91c10.478,0,18.972-8.133,18.972-18.609  c0-1.788-0.247-2.784-0.711-4.784h0.003c-2.626,9-11.665,16.854-22.41,16.854c-4.8,0-9.259-1.663-12.958-4.162" fill="#ffffff" style=""></path><desc>Created with Snap</desc><defs></defs></g><g><g transform="matrix(1.024,0,0,-1.024,0,0)"><path d="M212 121L567 121L567 0L74 0L74 710L558 710L558 589L212 589L212 418L511 418L511 306L212 306L212 121ZM962 214L659 214L659 335L962 335L962 214ZM1577 636L1516 524Q1509 531 1490 543Q1472 555 1445 566Q1419 578 1388 586Q1357 594 1325 594Q1268 594 1240 573Q1212 552 1212 514Q1212 492 1222 477Q1233 463 1253 452Q1273 441 1303 432Q1334 423 1374 413Q1426 399 1468 383Q1511 367 1540 343Q1570 319 1586 285Q1602 252 1602 203Q1602 146 1580 105Q1559 65 1522 40Q1486 15 1438 3Q1391 -8 1339 -8Q1259 -8 1181 16Q1103 40 1041 84L1102 203Q1111 194 1134 179Q1158 165 1190 150Q1222 136 1261 126Q1300 116 1341 116Q1455 116 1455 189Q1455 212 1442 228Q1429 244 1405 256Q1381 268 1347 278Q1313 288 1271 300Q1220 314 1182 330Q1145 347 1120 369Q1095 392 1082 421Q1070 451 1070 492Q1070 546 1090 588Q1110 630 1145 658Q1181 686 1228 700Q1275 715 1329 715Q1404 715 1467 691Q1530 668 1577 636ZM1660 262Q1660 317 1679 366Q1698 415 1734 452Q1770 489 1821 511Q1872 533 1936 533Q2022 533 2082 496Q2143 459 2173 399L2042 359Q2025 388 1997 403Q1969 419 1935 419Q1906 419 1881 407Q1856 396 1837 375Q1819 355 1808 326Q1798 297 1798 262Q1798 227 1809 198Q1820 169 1838 148Q1857 127 1882 115Q1907 104 1935 104Q1971 104 2001 122Q2032 140 2044 166L2175 126Q2148 66 2086 28Q2024 -10 1937 -10Q1873 -10 1822 12Q1771 34 1735 71Q1699 109 1679 158Q1660 208 1660 262ZM2744 327L2744 0L2610 0L2610 294Q2610 356 2587 385Q2564 415 2522 415Q2504 415 2484 407Q2464 399 2446 384Q2428 370 2413 350Q2398 330 2391 306L2391 0L2257 0L2257 730L2391 730L2391 427Q2420 478 2469 505Q2519 533 2579 533Q2630 533 2662 515Q2694 498 2712 469Q2730 440 2737 403Q2744 366 2744 327ZM3103 -10Q3039 -10 2988 12Q2937 34 2901 71Q2866 109 2847 158Q2828 207 2828 261Q2828 316 2847 365Q2866 414 2901 451Q2937 489 2988 511Q3039 533 3103 533Q3167 533 3217 511Q3268 489 3303 451Q3339 414 3358 365Q3377 316 3377 261Q3377 207 3358 158Q3339 109 3304 71Q3269 34 3218 12Q3167 -10 3103 -10ZM2966 261Q2966 226 2976 197Q2987 169 3005 148Q3024 127 3049 115Q3074 104 3103 104Q3132 104 3157 115Q3182 127 3200 148Q3219 169 3229 198Q3240 227 3240 262Q3240 296 3229 325Q3219 354 3200 375Q3182 396 3157 407Q3132 419 3103 419Q3074 419 3049 407Q3024 395 3005 374Q2987 353 2976 324Q2966 295 2966 261ZM3709 -10Q3645 -10 3594 12Q3543 34 3507 71Q3472 109 3453 158Q3434 207 3434 261Q3434 316 3453 365Q3472 414 3507 451Q3543 489 3594 511Q3645 533 3709 533Q3773 533 3823 511Q3874 489 3909 451Q3945 414 3964 365Q3983 316 3983 261Q3983 207 3964 158Q3945 109 3910 71Q3875 34 3824 12Q3773 -10 3709 -10ZM3572 261Q3572 226 3582 197Q3593 169 3611 148Q3630 127 3655 115Q3680 104 3709 104Q3738 104 3763 115Q3788 127 3806 148Q3825 169 3835 198Q3846 227 3846 262Q3846 296 3835 325Q3825 354 3806 375Q3788 396 3763 407Q3738 419 3709 419Q3680 419 3655 407Q3630 395 3611 374Q3593 353 3582 324Q3572 295 3572 261ZM4072 121L4072 730L4206 730L4206 168Q4206 139 4220 123Q4234 107 4260 107Q4272 107 4286 111Q4301 115 4314 121L4332 19Q4305 6 4269 -1Q4233 -8 4204 -8Q4141 -8 4106 25Q4072 59 4072 121Z" fill="#ffffff" style=""></path></g></g></g></svg>