<svg version="1.1" xmlns="http://www.w3.org/2000/svg" viewBox="-462.2 -1075.2 5863.799999999999 2889.1"><desc>Created with Snap</desc><defs></defs><g><rect x="-462.2" y="-1075.2" width="5863.799999999999" height="2889.1" fill="#d90429" style=""></rect><g transform="matrix(23.9442,0,0,23.9442,2819.7,-768)">
<g>
	<rect x="2.5" y="2.5" fill="none" width="90" height="90"></rect>
</g>
<path d="M4.8,95C2.1,95,0,92.9,0,90.2V31.7C0,14.2,14.2,0,31.7,0h58.6C92.9,0,95,2.1,95,4.8s-2.1,4.7-4.8,4.7H31.7
	c-12.2,0-22.2,10-22.2,22.2v58.6C9.5,92.9,7.4,95,4.8,95z" fill="#ffffff" style=""></path>
<path d="M52.3,95C44.4,95,38,88.6,38,80.8s6.4-14.2,14.3-14.2S66.5,73,66.5,80.8S60.2,95,52.3,95z M52.3,76c-2.6,0-4.8,2.1-4.8,4.8
	s2.1,4.8,4.8,4.8s4.8-2.1,4.8-4.8S54.9,76,52.3,76z" fill="#ffffff" style=""></path>
<path d="M52.3,61.6c-13.1,0-23.7-10.6-23.7-23.7s10.6-23.7,23.7-23.7S76,24.8,76,37.9S65.4,61.6,52.3,61.6z M52.3,23.7
	c-7.8,0-14.2,6.4-14.2,14.2s6.4,14.2,14.2,14.2s14.2-6.4,14.2-14.2C66.5,30,60.1,23.7,52.3,23.7z" fill="#ffffff" style=""></path>
<desc>Created with Snap</desc><defs></defs></g><g><g transform="matrix(0.5,0,0,-0.5,0,0)"><path d="M483 0L157 0L157 1456L504 1456Q759 1456 900 1296Q1041 1137 1041 848L1041 604Q1041 315 898 157Q755 0 483 0ZM504 1298L340 1298L340 157L487 157Q680 157 769 267Q858 378 860 595L860 853Q860 1083 771 1190Q683 1298 504 1298ZM1492 1082L1492 0L1315 0L1315 1082L1492 1082ZM1506 1369Q1506 1324 1481 1294Q1456 1264 1405 1264Q1355 1264 1330 1294Q1305 1324 1305 1369Q1305 1414 1330 1445Q1355 1476 1405 1476Q1455 1476 1480 1444Q1506 1413 1506 1369ZM1735 470L1735 590Q1735 843 1827 972Q1919 1102 2096 1102Q2261 1102 2347 961L2356 1082L2516 1082L2516 -10Q2516 -211 2413 -319Q2310 -426 2126 -426Q2046 -426 1946 -387Q1847 -347 1797 -289L1869 -167Q1979 -275 2112 -275Q2333 -275 2339 -34L2339 107Q2253 -20 2095 -20Q1927 -20 1833 106Q1739 233 1735 470ZM1912 597L1912 489Q1912 307 1965 221Q2019 136 2141 136Q2273 136 2339 271L2339 812Q2270 945 2143 945Q2021 945 1967 859Q1913 774 1912 597ZM2970 1082L2970 0L2793 0L2793 1082L2970 1082ZM2984 1369Q2984 1324 2959 1294Q2934 1264 2883 1264Q2833 1264 2808 1294Q2783 1324 2783 1369Q2783 1414 2808 1445Q2833 1476 2883 1476Q2933 1476 2958 1444Q2984 1413 2984 1369ZM3304 1344L3480 1344L3480 1082L3643 1082L3643 939L3480 939L3480 268Q3480 204 3501 171Q3522 138 3573 138Q3608 138 3644 150L3642 0Q3582 -20 3519 -20Q3414 -20 3359 55Q3304 130 3304 267L3304 939L3139 939L3139 1082L3304 1082L3304 1344ZM4594 0L4410 0Q4394 35 4387 118Q4293 -20 4147 -20Q4000 -20 3917 62Q3835 145 3835 295Q3835 460 3947 557Q4059 654 4254 656L4384 656L4384 771Q4384 868 4341 909Q4298 950 4210 950Q4130 950 4080 902Q4030 855 4030 782L3853 782Q3853 865 3902 940Q3951 1016 4034 1059Q4117 1102 4219 1102Q4385 1102 4471 1019Q4558 937 4560 779L4560 233Q4561 108 4594 16L4594 0ZM4174 141Q4239 141 4298 177Q4357 213 4384 267L4384 525L4284 525Q4158 523 4085 468Q4012 414 4012 316Q4012 224 4049 182Q4086 141 4174 141ZM5025 1536L5025 0L4848 0L4848 1536L5025 1536Z" fill="#ffffff" style=""></path></g></g><g transform="matrix(1,0,0,1,-233.5,1288.2)"><g transform="matrix(0.5,0,0,-0.5,0,0)"><path d="M341 1456L341 157L912 157L912 0L157 0L157 1456L341 1456ZM1296 1082L1296 0L1119 0L1119 1082L1296 1082ZM1310 1369Q1310 1324 1285 1294Q1260 1264 1209 1264Q1159 1264 1134 1294Q1109 1324 1109 1369Q1109 1414 1134 1445Q1159 1476 1209 1476Q1259 1476 1284 1444Q1310 1413 1310 1369ZM2358 596L2358 489Q2358 236 2267 108Q2176 -20 2003 -20Q1831 -20 1745 128L1736 0L1575 0L1575 1536L1751 1536L1751 963Q1838 1102 2001 1102Q2179 1102 2268 976Q2357 850 2358 596ZM2182 481L2182 590Q2182 782 2128 863Q2075 945 1955 945Q1818 945 1751 797L1751 282Q1817 136 1957 136Q2077 136 2129 220Q2181 304 2182 481ZM3030 1088L3031 916Q2994 923 2951 923Q2815 923 2761 774L2761 0L2584 0L2584 1082L2756 1082L2759 972Q2830 1102 2960 1102Q3002 1102 3030 1088ZM3948 0L3764 0Q3748 35 3741 118Q3647 -20 3501 -20Q3354 -20 3271 62Q3189 145 3189 295Q3189 460 3301 557Q3413 654 3608 656L3738 656L3738 771Q3738 868 3695 909Q3652 950 3564 950Q3484 950 3434 902Q3384 855 3384 782L3207 782Q3207 865 3256 940Q3305 1016 3388 1059Q3471 1102 3573 1102Q3739 1102 3825 1019Q3912 937 3914 779L3914 233Q3915 108 3948 16L3948 0ZM3528 141Q3593 141 3652 177Q3711 213 3738 267L3738 525L3638 525Q3512 523 3439 468Q3366 414 3366 316Q3366 224 3403 182Q3440 141 3528 141ZM4634 1088L4635 916Q4598 923 4555 923Q4419 923 4365 774L4365 0L4188 0L4188 1082L4360 1082L4363 972Q4434 1102 4564 1102Q4606 1102 4634 1088ZM4907 1082L5107 294L5304 1082L5492 1082L5138 -153Q5098 -292 5025 -365Q4952 -437 4859 -437Q4823 -437 4767 -421L4767 -271L4806 -275Q4883 -275 4926 -239Q4970 -202 4997 -112L5032 9L4714 1082L4907 1082Z" fill="#ffffff" style=""></path></g></g></g></svg>