<svg version="1.1" xmlns="http://www.w3.org/2000/svg" viewBox="-298.49600048065184 -1139.711962890625 3352.103857421875 4896.767822265625"><desc>Created with Snap</desc><defs></defs><g><rect x="-298.49600048065184" y="-1139.711962890625" width="3352.103857421875" height="4896.767822265625" fill="#d90429" style=""></rect><g transform="matrix(62.112,0,0,62.112,383.764,1462.2719)"><g display="none"><rect x="-69.333" y="-18.667" display="inline" fill="#ffffff" width="473.333" height="236" style=""></rect></g><g display="none"><g display="inline"><g><polygon fill="#ffffff" points="32,15.976 15.976,32 0,16.024    " style=""></polygon></g><g><polygon points="23.347,15.989 15.989,23.347 8.653,16.011    " fill="#ffffff" style=""></polygon></g><g><polygon fill="#ffffff" points="0,16.024 16.024,0 32,15.976    " style=""></polygon></g><g><polygon fill="#ffffff" points="8.653,16.011 16.011,8.653 23.347,15.989    " style=""></polygon></g></g></g><g display="none"><g display="inline"><path fill="#ffffff" d="M16,1c8.271,0,15,6.729,15,15s-6.729,15-15,15S1,24.271,1,16S7.729,1,16,1 M16,0C7.163,0,0,7.163,0,16    s7.163,16,16,16s16-7.163,16-16S24.837,0,16,0L16,0z" style=""></path></g><g display="inline"><path fill="#ffffff" d="M13.034,6.153l2.259,2.259L16,9.119l0.707-0.707l2.259-2.259l0.744,0.744l-2.259,2.259l-0.707,0.707    l0.707,0.707l2.259,2.259l-0.744,0.744l-2.259-2.259L16,10.607l-0.707,0.707l-2.259,2.259l-0.744-0.744l2.259-2.259l0.707-0.707    l-0.707-0.707L12.29,6.897L13.034,6.153 M18.966,4.738L16,7.705l-2.966-2.966l-2.158,2.158l2.966,2.966l-2.966,2.966l2.158,2.158    L16,12.021l2.966,2.966l2.158-2.158l-2.966-2.966l2.966-2.966L18.966,4.738L18.966,4.738z" style=""></path></g><g display="inline"><path fill="#ffffff" d="M13.034,18.427l2.259,2.259L16,21.393l0.707-0.707l2.259-2.259l0.744,0.744l-2.259,2.259l-0.707,0.707    l0.707,0.707l2.259,2.259l-0.744,0.744l-2.259-2.259L16,22.881l-0.707,0.707l-2.259,2.259l-0.744-0.744l2.259-2.259l0.707-0.707    l-0.707-0.707l-2.259-2.259L13.034,18.427 M18.966,17.013L16,19.979l-2.966-2.966l-2.158,2.158l2.966,2.966l-2.966,2.966    l2.158,2.158L16,24.295l2.966,2.966l2.158-2.158l-2.966-2.966l2.966-2.966L18.966,17.013L18.966,17.013z" style=""></path></g></g><g display="none"><g display="inline"><rect x="2" y="2" fill="#ffffff" width="28" height="28" style=""></rect></g><g display="inline"><g><path fill="#ffffff" d="M16,31.5C7.453,31.5,0.5,24.547,0.5,16S7.453,0.5,16,0.5S31.5,7.453,31.5,16S24.547,31.5,16,31.5z" style=""></path></g><g><g><path d="M16,1c8.271,0,15,6.729,15,15s-6.729,15-15,15S1,24.271,1,16S7.729,1,16,1 M16,0C7.163,0,0,7.163,0,16s7.163,16,16,16      s16-7.163,16-16S24.837,0,16,0L16,0z" fill="#ffffff" style=""></path></g></g></g><g display="inline"><g><polygon fill="#ffffff" points="16,11.314 13.034,14.28 11.582,12.829 14.549,9.863 11.582,6.896 13.034,5.445 16,8.412      18.966,5.445 20.418,6.896 17.451,9.863 20.418,12.829 18.966,14.28    " style=""></polygon></g><g><path d="M13.034,6.153l2.259,2.259L16,9.119l0.707-0.707l2.259-2.259l0.744,0.744l-2.259,2.259l-0.707,0.707l0.707,0.707     l2.259,2.259l-0.744,0.744l-2.259-2.259L16,10.607l-0.707,0.707l-2.259,2.259l-0.744-0.744l2.259-2.259l0.707-0.707l-0.707-0.707     L12.29,6.897L13.034,6.153 M18.966,4.738L16,7.705l-2.966-2.966l-2.158,2.158l2.966,2.966l-2.966,2.966l2.158,2.158L16,12.021     l2.966,2.966l2.158-2.158l-2.966-2.966l2.966-2.966L18.966,4.738L18.966,4.738z" fill="#ffffff" style=""></path></g></g><g display="inline"><g><polygon fill="#ffffff" points="16,23.589 13.034,26.555 11.582,25.104 14.549,22.137 11.582,19.171 13.034,17.72 16,20.686      18.966,17.72 20.418,19.171 17.451,22.137 20.418,25.104 18.966,26.555    " style=""></polygon></g><g><path d="M13.034,18.427l2.259,2.259L16,21.393l0.707-0.707l2.259-2.259l0.744,0.744l-2.259,2.259l-0.707,0.707l0.707,0.707     l2.259,2.259l-0.744,0.744l-2.259-2.259L16,22.881l-0.707,0.707l-2.259,2.259l-0.744-0.744l2.259-2.259l0.707-0.707l-0.707-0.707     l-2.259-2.259L13.034,18.427 M18.966,17.013L16,19.979l-2.966-2.966l-2.158,2.158l2.966,2.966l-2.966,2.966l2.158,2.158     L16,24.295l2.966,2.966l2.158-2.158l-2.966-2.966l2.966-2.966L18.966,17.013L18.966,17.013z" fill="#ffffff" style=""></path></g></g></g><g><g><path d="M0,16.024L15.976,32L32,15.976L16.024,0L0,16.024z M15.989,23.347l-7.336-7.336l14.694-0.022L15.989,23.347z" fill="#ffffff" style=""></path></g></g><desc>Created with Snap</desc><defs></defs></g><g><g transform="matrix(0.512,0,0,-0.512,0,0)"><path d="M769 -11L573 -11L17 1486L266 1486L604 519L672 280L743 519L1066 1486L1312 1486L769 -11ZM1739 0L1509 0L1509 1112L1739 1112L1739 0ZM1611 1309Q1553 1309 1509 1346Q1466 1383 1466 1447Q1466 1491 1490 1526Q1515 1562 1553 1583Q1591 1605 1632 1605Q1703 1605 1739 1565Q1775 1525 1775 1467Q1775 1398 1725 1353Q1676 1309 1611 1309ZM2981 0L2763 0L2763 148L2751 154L2751 942L2759 948L2751 1168L2751 1626L2981 1626L2981 0ZM2452 -16Q2335 -16 2234 42Q2134 100 2072 218Q2011 336 2011 517Q2011 698 2081 835Q2151 973 2276 1050Q2402 1128 2571 1128Q2674 1128 2744 1103Q2814 1079 2833 1062L2751 915Q2721 941 2671 951Q2622 961 2554 961Q2469 961 2400 914Q2332 867 2291 774Q2250 681 2249 544Q2246 348 2317 257Q2388 166 2516 166Q2594 166 2655 195Q2717 224 2751 251L2789 137Q2765 112 2725 76Q2685 40 2619 12Q2553 -16 2452 -16ZM3741 -16Q3501 -16 3371 136Q3241 288 3241 558Q3241 720 3298 848Q3356 976 3468 1051Q3581 1126 3745 1128Q3829 1130 3903 1104Q3977 1078 4034 1025Q4091 973 4124 893Q4158 813 4161 706Q4161 643 4160 593Q4159 544 4151 506L3375 506L3395 652L3945 652Q3950 732 3935 803Q3921 875 3873 919Q3826 964 3733 964Q3655 964 3593 920Q3531 877 3497 774Q3463 671 3469 492Q3475 366 3520 293Q3565 220 3638 189Q3711 158 3801 158Q3839 158 3894 166Q3949 175 4000 188Q4052 202 4079 218L4123 86Q4086 56 4022 33Q3959 10 3885 -3Q3811 -16 3741 -16ZM4848 -16Q4712 -16 4617 32Q4522 80 4463 163Q4404 246 4377 353Q4351 461 4352 580Q4355 759 4423 881Q4491 1003 4607 1065Q4723 1128 4868 1128Q5050 1128 5159 1045Q5269 963 5317 827Q5366 692 5364 534Q5361 355 5293 232Q5226 110 5110 47Q4995 -16 4848 -16ZM4854 147Q4991 145 5060 250Q5130 356 5130 543Q5130 659 5102 753Q5074 848 5014 905Q4955 962 4862 963Q4726 966 4657 865Q4588 764 4588 577Q4588 461 4616 364Q4644 267 4703 208Q4762 149 4854 147Z" fill="#ffffff" style=""></path></g></g><g transform="matrix(1,0,0,1,345.108,1145.8559)"><g transform="matrix(0.512,0,0,-0.512,0,0)"><path d="M412 0L176 0L176 1486L412 1486L412 840L1090 840L1090 1486L1324 1486L1324 0L1090 0L1090 660L412 660L412 0ZM1984 -16Q1875 -16 1808 18Q1741 52 1706 115Q1671 179 1658 267Q1646 355 1646 462L1646 1114L1876 1114L1876 464Q1876 332 1896 270Q1917 208 1960 190Q2004 172 2074 172Q2115 172 2161 184Q2208 197 2249 214Q2290 232 2314 248L2314 1114L2544 1114L2544 -16L2438 -16Q2392 -16 2365 -3Q2338 11 2338 66L2338 144L2342 100Q2297 70 2236 43Q2176 17 2110 0Q2044 -16 1984 -16ZM2887 62L2887 1622L3117 1622L3117 1168L3109 972L3117 966L3117 164L2887 62ZM3291 -18Q3230 -18 3165 -10Q3101 -1 3043 12Q2985 25 2943 38Q2902 52 2887 62L3117 188Q3144 169 3193 158Q3243 148 3315 148Q3401 148 3469 196Q3538 245 3578 339Q3619 433 3621 570Q3623 768 3552 859Q3481 950 3353 950Q3275 950 3214 920Q3153 891 3117 864L3081 978Q3104 1002 3144 1037Q3184 1073 3250 1100Q3316 1128 3417 1128Q3535 1128 3635 1070Q3735 1013 3796 895Q3857 778 3857 598Q3857 417 3786 278Q3716 139 3588 60Q3461 -18 3291 -18Z" fill="#ffffff" style=""></path></g></g></g></svg>