<?xml version="1.0" encoding="utf-8"?>
<!-- Generator: Adobe Illustrator 25.4.1, SVG Export Plug-In . SVG Version: 6.00 Build 0)  -->
<svg version="1.1" id="Layer_1" xmlns="http://www.w3.org/2000/svg" xmlns:xlink="http://www.w3.org/1999/xlink" x="0px" y="0px"
	 viewBox="0 0 398.21 436.77" style="enable-background:new 0 0 398.21 436.77;" xml:space="preserve">
<g>
	<g>
		<g style="opacity:0.47;">
			<g>
				<g>
					<path style="fill:none;stroke:#BB2327;stroke-width:34;stroke-miterlimit:10;" d="M-285.55,741.81"/>
				</g>
			</g>
		</g>
	</g>
</g>
<g style="opacity:0.51;">
	
		<rect x="206.9" y="333.84" transform="matrix(0.8835 -0.4685 0.4685 0.8835 -130.6817 170.1441)" style="fill:#BB2327;" width="139.59" height="27.88"/>
</g>
<g style="opacity:0.51;">
	
		<rect x="58.88" y="80.2" transform="matrix(0.8835 -0.4685 0.4685 0.8835 -29.1056 71.248)" style="fill:#BB2327;" width="139.59" height="27.88"/>
</g>
<g style="opacity:0.51;">
	<rect x="53.17" y="191.79" style="fill:#BB2327;" width="27.88" height="103.88"/>
</g>
<g style="opacity:0.58;">
	<rect x="337.2" y="167.2" style="fill:#DF312D;" width="23.63" height="129.13"/>
</g>
<g>
	<polygon style="fill:#BB2327;" points="78.66,217.56 38.02,216.16 41.38,118.28 129.81,67.22 150.14,102.45 81.25,142.22 	"/>
</g>
<g>
	<polygon style="fill:#DF312D;" points="83.97,243.73 67.11,243.73 67.11,141.3 129.36,105.36 137.79,119.96 83.97,151.03 	"/>
</g>
<g>
	<polygon style="fill:#BB2327;" points="288.82,355.27 269.92,322.54 333.95,285.57 336.36,215.55 374.14,216.85 371.01,307.82 	"/>
</g>
<g>
	<polygon style="fill:#DF312D;" points="281.42,330.98 272.99,316.38 326.8,285.31 326.8,192.61 343.66,192.61 343.66,295.05 	"/>
</g>
<g style="opacity:0.45;">
	<polygon style="fill:#DF312D;" points="164.71,382.75 44.94,313.6 44.94,177.2 61.8,177.2 61.8,303.87 173.14,368.15 	"/>
</g>
<g style="opacity:0.45;">
	<polygon style="fill:#DF312D;" points="361.8,283.21 344.94,283.21 344.94,139.39 314.73,121.95 323.16,107.34 361.8,129.65 	"/>
</g>
<polyline style="fill:#DF312D;" points="205.39,34.2 363.05,125.23 354.62,139.84 205.39,53.68 181.58,67.42 173.15,52.82 
	205.39,34.2 "/>
<g>
	<polygon style="fill:#BB2327;" points="206.38,397.04 135.37,356.04 146.28,337.14 206.38,371.84 231.95,357.07 242.86,375.97 	"/>
</g>
<g>
	<linearGradient id="SVGID_1_" gradientUnits="userSpaceOnUse" x1="83.8307" y1="255.9406" x2="327.0975" y2="255.9406">
		<stop  offset="0.028" style="stop-color:#B1AFB5"/>
		<stop  offset="1" style="stop-color:#5C5B60"/>
	</linearGradient>
	<polygon style="opacity:0.1;fill:url(#SVGID_1_);" points="83.83,291.05 327.1,150.6 327.1,291.05 205.46,361.28 	"/>
	<g>
		<polygon style="fill:#BB2327;" points="78.34,200 49.72,199.02 52.09,130.09 114.36,94.13 128.68,118.94 80.16,146.95 		"/>
	</g>
	<g>
		<polygon style="fill:#DF312D;" points="91.73,242 75.93,242 75.93,146.04 134.24,112.38 142.14,126.06 91.73,155.16 		"/>
	</g>
	<g>
		<polygon style="fill:#BB2327;" points="283.63,346.49 265.92,315.82 325.9,281.19 328.15,215.6 363.54,216.81 360.61,302.04 		"/>
	</g>
	<g>
		<polygon style="fill:#DF312D;" points="276.69,323.73 268.79,310.05 319.2,280.95 319.2,194.11 335,194.11 335,290.07 		"/>
	</g>
	<g>
		<polygon style="fill:#DF312D;" points="345.26,144.68 205.46,63.96 183.16,76.84 175.26,63.16 205.46,45.72 353.16,130.99 		"/>
	</g>
	<g>
		<polygon style="fill:#BB2327;" points="206.39,385.61 139.88,347.2 150.1,329.5 206.39,362 230.35,348.17 240.57,365.88 		"/>
	</g>
</g>
<g>
	<g>
		<g>
			<path style="fill:#CC3333;" d="M176.83,250.33h-12.5l-21.05-63.23h13l15.65,48.46l16-48.46h10.25L176.83,250.33z"/>
			<path style="fill:#CC3333;" d="M256.56,250.33h-12.3v-27.47h-26.05v27.47h-12.3v-63.23h12.3v25.99h26.05v-25.99h12.3V250.33z"/>
		</g>
	</g>
</g>
<g>
</g>
<g>
</g>
<g>
</g>
<g>
</g>
<g>
</g>
<g>
</g>
</svg>
