<?xml version="1.0" encoding="utf-8"?>
<!-- Generator: Adobe Illustrator 25.4.1, SVG Export Plug-In . SVG Version: 6.00 Build 0)  -->
<svg version="1.1" id="Layer_1" xmlns="http://www.w3.org/2000/svg" xmlns:xlink="http://www.w3.org/1999/xlink" x="0px" y="0px"
	 viewBox="0 0 131.77 131.77" style="enable-background:new 0 0 131.77 131.77;" xml:space="preserve">
<path style="fill:none;stroke:#363795;stroke-width:3;stroke-miterlimit:10;" d="M122.29,128.34H9.49c-3.34,0-6.06-2.71-6.06-6.06
	V9.49c0-3.34,2.71-6.06,6.06-6.06h112.8c3.34,0,6.06,2.71,6.06,6.06v112.8C128.34,125.63,125.63,128.34,122.29,128.34z"/>
<g>
	<path style="fill:#363795;" d="M31.03,87.66c-0.48,0-0.89-0.17-1.23-0.5c-0.34-0.34-0.5-0.74-0.5-1.23V39.01
		c0-0.53,0.17-0.96,0.5-1.3c0.34-0.34,0.74-0.5,1.23-0.5h17.59c4.85,0,8.85,0.75,12,2.23c3.15,1.49,5.52,3.7,7.14,6.63
		c1.61,2.93,2.44,6.51,2.49,10.74c0.1,2.11,0.14,3.99,0.14,5.62c0,1.63-0.05,3.48-0.14,5.55c-0.1,4.47-0.91,8.16-2.45,11.06
		c-1.54,2.91-3.86,5.07-6.96,6.49c-3.1,1.42-7.05,2.13-11.86,2.13H31.03z M39.32,79.37h9.3c2.69,0,4.88-0.38,6.56-1.15
		c1.68-0.77,2.92-2.01,3.71-3.71c0.79-1.71,1.21-3.95,1.26-6.74c0.05-1.44,0.08-2.7,0.11-3.78c0.02-1.08,0.02-2.16,0-3.24
		c-0.02-1.08-0.06-2.32-0.11-3.71c-0.1-3.94-1.08-6.85-2.96-8.72c-1.87-1.87-4.85-2.81-8.94-2.81h-8.94V79.37z"/>
	<path style="fill:#363795;" d="M80.47,87.66c-0.4,0-0.74-0.14-1.02-0.42c-0.28-0.28-0.42-0.62-0.42-1.02V47.1
		c0-0.4,0.14-0.74,0.42-1.02c0.28-0.28,0.62-0.42,1.02-0.42h5.58c0.4,0,0.74,0.14,1.02,0.42c0.28,0.28,0.42,0.62,0.42,1.02v33.42
		h19.02c0.44,0,0.8,0.14,1.08,0.42c0.28,0.28,0.42,0.64,0.42,1.08v4.2c0,0.4-0.14,0.74-0.42,1.02c-0.28,0.28-0.64,0.42-1.08,0.42
		H80.47z"/>
</g>
<g>
</g>
<g>
</g>
<g>
</g>
<g>
</g>
<g>
</g>
<g>
</g>
</svg>
