<?xml version="1.0" encoding="utf-8"?>
<!-- Generator: Adobe Illustrator 25.4.1, SVG Export Plug-In . SVG Version: 6.00 Build 0)  -->
<svg version="1.1" id="Layer_1" xmlns="http://www.w3.org/2000/svg" xmlns:xlink="http://www.w3.org/1999/xlink" x="0px" y="0px"
	 viewBox="0 0 131.77 131.77" style="enable-background:new 0 0 131.77 131.77;" xml:space="preserve">
<path style="fill:none;stroke:#F26739;stroke-width:3;stroke-miterlimit:10;" d="M122.29,128.63H9.49c-3.34,0-6.06-2.71-6.06-6.06
	V9.77c0-3.34,2.71-6.06,6.06-6.06h112.8c3.34,0,6.06,2.71,6.06,6.06v112.8C128.34,125.91,125.63,128.63,122.29,128.63z"/>
<g>
	<path style="fill:#F26739;" d="M31.33,89.17c-0.48,0-0.89-0.17-1.23-0.5c-0.34-0.34-0.5-0.74-0.5-1.23V40.52
		c0-0.53,0.17-0.96,0.5-1.3c0.34-0.34,0.74-0.5,1.23-0.5h31.71c0.53,0,0.96,0.17,1.3,0.5c0.34,0.34,0.5,0.77,0.5,1.3v4.76
		c0,0.48-0.17,0.89-0.5,1.23c-0.34,0.34-0.77,0.5-1.3,0.5H39.33v12.76h22.13c0.53,0,0.96,0.16,1.3,0.47c0.34,0.31,0.5,0.73,0.5,1.26
		v4.47c0,0.53-0.17,0.95-0.5,1.26c-0.34,0.31-0.77,0.47-1.3,0.47H39.33v13.19h24.29c0.53,0,0.96,0.17,1.3,0.5
		c0.34,0.34,0.5,0.77,0.5,1.3v4.76c0,0.48-0.17,0.89-0.5,1.23c-0.34,0.34-0.77,0.5-1.3,0.5H31.33z"/>
	<path style="fill:#F26739;" d="M87.77,89.89c-2.88,0-5.35-0.34-7.39-1.01c-2.04-0.67-3.71-1.51-5.01-2.52
		c-1.3-1.01-2.26-2.02-2.88-3.03c-0.62-1.01-0.96-1.85-1.01-2.52c-0.05-0.53,0.11-0.95,0.47-1.26c0.36-0.31,0.76-0.47,1.19-0.47
		h5.69c0.19,0,0.36,0.02,0.5,0.07c0.14,0.05,0.34,0.19,0.58,0.43c0.62,0.53,1.28,1.08,1.98,1.66c0.7,0.58,1.52,1.07,2.49,1.48
		c0.96,0.41,2.16,0.61,3.6,0.61c1.87,0,3.45-0.37,4.72-1.12c1.27-0.74,1.91-1.81,1.91-3.21c0-1.01-0.28-1.83-0.83-2.45
		c-0.55-0.62-1.57-1.19-3.06-1.69c-1.49-0.5-3.6-1.04-6.34-1.62c-2.69-0.62-4.93-1.42-6.7-2.38c-1.78-0.96-3.1-2.16-3.96-3.6
		c-0.86-1.44-1.3-3.12-1.3-5.05c0-1.87,0.56-3.66,1.69-5.37c1.13-1.71,2.81-3.11,5.05-4.22c2.23-1.1,5.01-1.66,8.32-1.66
		c2.59,0,4.85,0.32,6.77,0.97c1.92,0.65,3.52,1.45,4.79,2.41c1.27,0.96,2.25,1.93,2.92,2.92c0.67,0.99,1.03,1.84,1.08,2.56
		c0.05,0.53-0.1,0.95-0.43,1.26c-0.34,0.31-0.72,0.47-1.15,0.47h-5.33c-0.24,0-0.46-0.05-0.65-0.14c-0.19-0.1-0.39-0.22-0.58-0.36
		c-0.53-0.48-1.11-0.98-1.73-1.51c-0.62-0.53-1.38-1-2.27-1.41c-0.89-0.41-2.05-0.61-3.5-0.61c-1.83,0-3.22,0.4-4.18,1.19
		c-0.96,0.79-1.44,1.79-1.44,2.99c0,0.82,0.23,1.53,0.68,2.13c0.46,0.6,1.38,1.17,2.77,1.69c1.39,0.53,3.51,1.08,6.34,1.66
		c3.22,0.58,5.78,1.43,7.68,2.56c1.9,1.13,3.24,2.43,4.04,3.89c0.79,1.47,1.19,3.09,1.19,4.87c0,2.16-0.64,4.11-1.91,5.84
		c-1.27,1.73-3.15,3.09-5.62,4.07C94.48,89.4,91.42,89.89,87.77,89.89z"/>
</g>
<g>
</g>
<g>
</g>
<g>
</g>
<g>
</g>
<g>
</g>
<g>
</g>
</svg>
