<?xml version="1.0" encoding="utf-8"?>
<!-- Generator: Adobe Illustrator 25.4.1, SVG Export Plug-In . SVG Version: 6.00 Build 0)  -->
<svg version="1.1" id="Layer_1" xmlns="http://www.w3.org/2000/svg" xmlns:xlink="http://www.w3.org/1999/xlink" x="0px" y="0px"
	 viewBox="0 0 131.77 131.77" style="enable-background:new 0 0 131.77 131.77;" xml:space="preserve">
<path style="fill:none;stroke:#0099CD;stroke-width:3;stroke-miterlimit:10;" d="M122.29,128.4H9.49c-3.34,0-6.06-2.71-6.06-6.06
	V9.54c0-3.34,2.71-6.06,6.06-6.06h112.8c3.34,0,6.06,2.71,6.06,6.06v112.8C128.34,125.68,125.63,128.4,122.29,128.4z"/>
<g>
	<path style="fill:#0099CD;" d="M30.09,90.38c-0.48,0-0.89-0.17-1.23-0.5c-0.34-0.34-0.5-0.74-0.5-1.23V41.73
		c0-0.53,0.17-0.96,0.5-1.3c0.34-0.34,0.74-0.5,1.23-0.5H61.8c0.53,0,0.96,0.17,1.3,0.5c0.34,0.34,0.5,0.77,0.5,1.3v4.76
		c0,0.48-0.17,0.89-0.5,1.23c-0.34,0.34-0.77,0.5-1.3,0.5H38.09v12.76h22.13c0.53,0,0.96,0.16,1.3,0.47c0.34,0.31,0.5,0.73,0.5,1.26
		v4.47c0,0.53-0.17,0.95-0.5,1.26c-0.34,0.31-0.77,0.47-1.3,0.47H38.09v13.19h24.29c0.53,0,0.96,0.17,1.3,0.5
		c0.34,0.34,0.5,0.77,0.5,1.3v4.76c0,0.48-0.17,0.89-0.5,1.23c-0.34,0.34-0.77,0.5-1.3,0.5H30.09z"/>
	<path style="fill:#0099CD;" d="M70.74,90.38c-0.43,0-0.81-0.16-1.12-0.47c-0.31-0.31-0.47-0.69-0.47-1.12
		c0-0.14,0.04-0.31,0.11-0.5c0.07-0.19,0.2-0.43,0.4-0.72l12.25-16.43L70.52,55.71c-0.14-0.24-0.25-0.46-0.32-0.65
		c-0.07-0.19-0.11-0.38-0.11-0.58c0-0.43,0.16-0.8,0.47-1.12c0.31-0.31,0.68-0.47,1.12-0.47h6.27c0.58,0,1.01,0.14,1.3,0.43
		c0.29,0.29,0.5,0.55,0.65,0.79l8.14,10.81l8.14-10.81c0.19-0.24,0.42-0.5,0.68-0.79c0.26-0.29,0.69-0.43,1.26-0.43h5.98
		c0.43,0,0.8,0.16,1.12,0.47c0.31,0.31,0.47,0.66,0.47,1.05c0,0.24-0.04,0.46-0.11,0.65c-0.07,0.19-0.18,0.41-0.32,0.65L93.73,71.28
		l12.33,16.29c0.19,0.29,0.32,0.53,0.4,0.72c0.07,0.19,0.11,0.36,0.11,0.5c0,0.43-0.16,0.81-0.47,1.12
		c-0.31,0.31-0.68,0.47-1.12,0.47h-6.56c-0.53,0-0.94-0.13-1.23-0.4c-0.29-0.26-0.53-0.52-0.72-0.76l-8.65-11.46l-8.79,11.46
		c-0.19,0.24-0.42,0.49-0.68,0.76c-0.26,0.26-0.69,0.4-1.26,0.4H70.74z"/>
</g>
<g>
</g>
<g>
</g>
<g>
</g>
<g>
</g>
<g>
</g>
<g>
</g>
</svg>
