<?xml version="1.0" encoding="utf-8"?>
<!-- Generator: Adobe Illustrator 25.4.1, SVG Export Plug-In . SVG Version: 6.00 Build 0)  -->
<svg version="1.1" id="Layer_1" xmlns="http://www.w3.org/2000/svg" xmlns:xlink="http://www.w3.org/1999/xlink" x="0px" y="0px"
	 viewBox="0 0 131.77 131.77" style="enable-background:new 0 0 131.77 131.77;" xml:space="preserve">
<path style="fill:none;stroke:#CC3333;stroke-width:3;stroke-miterlimit:10;" d="M122.62,128.14H9.82c-3.34,0-6.06-2.71-6.06-6.06
	V9.28c0-3.34,2.71-6.06,6.06-6.06h112.8c3.34,0,6.06,2.71,6.06,6.06v112.8C128.68,125.42,125.97,128.14,122.62,128.14z"/>
<g>
	<path style="fill:#CC3333;" d="M38.08,88.87c-0.77,0-1.37-0.19-1.8-0.58c-0.43-0.38-0.75-0.86-0.94-1.44L19.92,40.58
		c-0.1-0.24-0.14-0.46-0.14-0.65c0-0.43,0.14-0.79,0.43-1.08c0.29-0.29,0.65-0.43,1.08-0.43h6.34c0.67,0,1.19,0.18,1.55,0.54
		s0.59,0.71,0.68,1.05l12.18,37.12L54.15,40c0.14-0.34,0.4-0.69,0.76-1.05s0.88-0.54,1.55-0.54h6.34c0.38,0,0.73,0.14,1.04,0.43
		c0.31,0.29,0.47,0.65,0.47,1.08c0,0.19-0.05,0.41-0.14,0.65L48.75,86.85c-0.19,0.58-0.5,1.06-0.94,1.44
		c-0.43,0.39-1.03,0.58-1.8,0.58H38.08z"/>
	<path style="fill:#CC3333;" d="M71.45,88.87c-0.48,0-0.89-0.17-1.23-0.5c-0.34-0.34-0.5-0.74-0.5-1.23V39.43
		c0-0.48,0.17-0.89,0.5-1.23c0.34-0.34,0.74-0.5,1.23-0.5h6.42c0.53,0,0.95,0.17,1.26,0.5c0.31,0.34,0.47,0.75,0.47,1.23v16.43
		c1.3-1.54,2.88-2.79,4.76-3.75c1.87-0.96,4.18-1.44,6.92-1.44c2.93,0,5.49,0.66,7.68,1.98c2.19,1.32,3.88,3.18,5.08,5.59
		c1.2,2.4,1.8,5.29,1.8,8.65v20.25c0,0.48-0.17,0.89-0.5,1.23c-0.34,0.34-0.75,0.5-1.23,0.5h-6.49c-0.48,0-0.89-0.17-1.23-0.5
		c-0.34-0.34-0.5-0.74-0.5-1.23V67.32c0-2.79-0.68-4.97-2.05-6.56c-1.37-1.59-3.35-2.38-5.95-2.38c-2.5,0-4.5,0.79-6.02,2.38
		c-1.51,1.59-2.27,3.77-2.27,6.56v19.82c0,0.48-0.16,0.89-0.47,1.23c-0.31,0.34-0.73,0.5-1.26,0.5H71.45z"/>
</g>
<g>
</g>
<g>
</g>
<g>
</g>
<g>
</g>
<g>
</g>
<g>
</g>
</svg>
